<svg width="39" height="31" viewBox="0 0 39 31" fill="none" xmlns="http://www.w3.org/2000/svg">
<path d="M21.3633 12.7656H26.6367V14.3475H21.3633V12.7656Z" fill="#ABC9C1"/>
<path d="M33.3386 14.3437H28.3945V15.1346C28.3945 15.5717 28.0013 15.9256 27.5156 15.9256H20.4844C19.9987 15.9256 19.6055 15.5717 19.6055 15.1346V14.3437H14.6614C13.525 14.3437 12.52 13.6918 12.1602 12.7216L9 4.18842V21.4622C9 22.7706 10.1829 23.8351 11.6367 23.8351H36.3633C37.8171 23.8351 39 22.7706 39 21.4622V4.18903L35.8396 12.7216C35.48 13.6918 34.475 14.3437 33.3386 14.3437V14.3437Z" fill="#ABC9C1"/>
<path d="M27.5156 0.109375H20.4844C19.0305 0.109375 17.8476 1.17386 17.8476 2.48223V3.27318H10.5122L13.8271 12.2239C13.9473 12.5475 14.2828 12.7646 14.6614 12.7646H19.6055V11.9736C19.6055 11.5366 19.9987 11.1827 20.4844 11.1827H27.5156C28.0013 11.1827 28.3945 11.5366 28.3945 11.9736V12.7646H33.3386C33.7172 12.7646 34.0527 12.5475 34.1729 12.2239L37.488 3.27318H30.1523V2.48223C30.1523 1.17386 28.9695 0.109375 27.5156 0.109375V0.109375ZM19.6055 3.27318V2.48223C19.6055 2.04576 19.9994 1.69128 20.4844 1.69128H27.5156C28.0006 1.69128 28.3945 2.04576 28.3945 2.48223V3.27318H19.6055Z" fill="#ABC9C1"/>
<g opacity="0.7" filter="url(#filter0_b)">
<path fill-rule="evenodd" clip-rule="evenodd" d="M10.25 8.85938C10.25 8.7213 10.3619 8.60938 10.5 8.60938H19C19.1381 8.60938 19.25 8.7213 19.25 8.85938V10.3594H10.25V8.85938ZM8.75 10.3594H3C1.34315 10.3594 0 11.7025 0 13.3594V27.3594C0 29.0162 1.34315 30.3594 3 30.3594H27C28.6569 30.3594 30 29.0162 30 27.3594V13.3594C30 11.7025 28.6569 10.3594 27 10.3594H20.75V8.85938C20.75 7.89288 19.9665 7.10938 19 7.10938H10.5C9.5335 7.10938 8.75 7.89288 8.75 8.85938V10.3594Z" fill="url(#paint0_linear)" fill-opacity="0.5"/>
</g>
<defs>
<filter id="filter0_b" x="-30" y="-22.8906" width="90" height="83.25" filterUnits="userSpaceOnUse" color-interpolation-filters="sRGB">
<feFlood flood-opacity="0" result="BackgroundImageFix"/>
<feGaussianBlur in="BackgroundImage" stdDeviation="15"/>
<feComposite in2="SourceAlpha" operator="in" result="effect1_backgroundBlur"/>
<feBlend mode="normal" in="SourceGraphic" in2="effect1_backgroundBlur" result="shape"/>
</filter>
<linearGradient id="paint0_linear" x1="34.3902" y1="41.9844" x2="10.9857" y2="5.479" gradientUnits="userSpaceOnUse">
<stop stop-color="#ABC9C1"/>
<stop offset="1" stop-color="white"/>
</linearGradient>
</defs>
</svg>
