<svg width="34" height="33" viewBox="0 0 34 33" fill="none" xmlns="http://www.w3.org/2000/svg">
<path d="M29 24.1094V9.6094H32.5C32.6069 9.60941 32.711 9.57515 32.797 9.51164C32.883 9.44813 32.9464 9.35872 32.9779 9.25653C33.0093 9.15435 33.0072 9.04477 32.9718 8.94387C32.9364 8.84298 32.8696 8.75609 32.7812 8.69596L20.2812 0.195976C20.1983 0.139549 20.1003 0.109375 20 0.109375C19.8997 0.109375 19.8017 0.139549 19.7187 0.195976L7.21875 8.69596C7.13034 8.75609 7.06353 8.84298 7.02814 8.94387C6.99274 9.04477 6.99062 9.15435 7.02208 9.25653C7.05354 9.35872 7.11694 9.44813 7.20295 9.51164C7.28897 9.57515 7.39308 9.60941 7.5 9.6094H11V24.1094H6V25.1094H34V24.1094H29ZM14.5 23.1094H13V22.1094H14.5V23.1094ZM16.5 23.1094H15V22.1094H16.5V23.1094ZM16 13.6094C16 13.3127 16.088 13.0227 16.2528 12.776C16.4176 12.5294 16.6519 12.3371 16.926 12.2236C17.2 12.11 17.5016 12.0803 17.7926 12.1382C18.0836 12.1961 18.3509 12.339 18.5606 12.5487C18.7704 12.7585 18.9133 13.0258 18.9712 13.3168C19.029 13.6077 18.9993 13.9093 18.8858 14.1834C18.7723 14.4575 18.58 14.6918 18.3333 14.8566C18.0867 15.0214 17.7967 15.1094 17.5 15.1094C17.1023 15.1089 16.721 14.9508 16.4398 14.6696C16.1586 14.3884 16.0004 14.0071 16 13.6094V13.6094ZM17.5659 17.8613L21.5659 10.8613L22.4341 11.3575L18.4341 18.3574L17.5659 17.8613ZM22.5 17.1094C22.2033 17.1094 21.9133 17.0214 21.6666 16.8566C21.4199 16.6918 21.2277 16.4575 21.1142 16.1834C21.0006 15.9093 20.9709 15.6077 21.0288 15.3168C21.0867 15.0258 21.2295 14.7585 21.4393 14.5487C21.6491 14.339 21.9164 14.1961 22.2073 14.1382C22.4983 14.0803 22.7999 14.11 23.074 14.2236C23.3481 14.3371 23.5824 14.5294 23.7472 14.776C23.912 15.0227 24 15.3127 24 15.6094C23.9995 16.0071 23.8413 16.3883 23.5601 16.6696C23.2789 16.9508 22.8977 17.1089 22.5 17.1094V17.1094Z" fill="#ABC9C1"/>
<rect x="12.125" y="7.60938" width="15.75" height="15.75" fill="#ABC9C1"/>
<g opacity="0.7" filter="url(#filter0_b)">
<path fill-rule="evenodd" clip-rule="evenodd" d="M23 16.6094V31.1094H28V32.1094H0V31.1094H4.99999V16.6094H1.5C1.39308 16.6094 1.28897 16.5751 1.20295 16.5116C1.11694 16.4481 1.05354 16.3587 1.02208 16.2565C0.990617 16.1543 0.992739 16.0448 1.02814 15.9439C1.06353 15.843 1.13034 15.7561 1.21875 15.696L13.7187 7.19598C13.8017 7.13955 13.8997 7.10938 14 7.10938C14.1003 7.10938 14.1983 7.13955 14.2812 7.19598L26.7812 15.696C26.8696 15.7561 26.9364 15.843 26.9718 15.9439C27.0072 16.0448 27.0093 16.1543 26.9779 16.2565C26.9464 16.3587 26.883 16.4481 26.797 16.5116C26.711 16.5751 26.6069 16.6094 26.5 16.6094H23Z" fill="url(#paint0_linear)" fill-opacity="0.5"/>
</g>
<defs>
<filter id="filter0_b" x="-30" y="-22.8906" width="88" height="85" filterUnits="userSpaceOnUse" color-interpolation-filters="sRGB">
<feFlood flood-opacity="0" result="BackgroundImageFix"/>
<feGaussianBlur in="BackgroundImage" stdDeviation="15"/>
<feComposite in2="SourceAlpha" operator="in" result="effect1_backgroundBlur"/>
<feBlend mode="normal" in="SourceGraphic" in2="effect1_backgroundBlur" result="shape"/>
</filter>
<linearGradient id="paint0_linear" x1="32.0975" y1="44.6094" x2="5.62771" y2="8.77285" gradientUnits="userSpaceOnUse">
<stop stop-color="#ABC9C1"/>
<stop offset="1" stop-color="white"/>
</linearGradient>
</defs>
</svg>
