<svg width="37" height="37" viewBox="0 0 37 37" fill="none" xmlns="http://www.w3.org/2000/svg">
<path d="M18.1021 9.55167C18.2066 10.0325 18.3669 10.3438 18.5539 10.5377C18.9987 13.6341 21.778 16.2729 24.0103 16.1625C26.85 16.0232 28.8628 12.9628 29.3146 10.5377C29.5016 10.3449 29.6816 9.93263 29.7896 9.44831C29.9104 8.89198 30.0405 8.05343 29.706 7.60976C29.6862 7.58653 29.5585 7.46923 29.5364 7.44948C29.8558 6.29734 30.5573 4.2416 28.8105 2.39376C27.864 1.39261 26.5492 0.889709 25.3611 0.492499C21.8535 -0.679387 19.3774 0.964041 18.2345 3.69689C18.1521 3.89085 17.619 5.11849 18.2647 7.44948C18.202 7.49129 18.1451 7.54472 18.0975 7.60976C17.7618 8.05226 17.9802 8.99535 18.1021 9.55167Z" fill="#ABC9C1"/>
<path d="M36.2428 26.5869C36.1452 24.4557 36.0244 21.0782 34.1627 18.3152C34.1627 18.3152 33.6319 17.5916 32.3729 17.1108C32.3729 17.1108 29.6389 16.278 28.3799 15.3779L27.805 15.7717L27.8689 19.5091L24.4171 28.724C24.3416 28.926 24.1488 29.0596 23.9339 29.0596C23.7191 29.0596 23.5263 28.926 23.4508 28.724L20.0001 19.5091C20.0001 19.5091 20.064 15.7833 20.0629 15.7717C20.071 15.803 19.4868 15.3779 19.4868 15.3779C18.2301 16.278 15.4949 17.1108 15.4949 17.1108C14.236 17.5916 13.7052 18.3152 13.7052 18.3152C11.8446 21.0782 11.7215 24.4557 11.6239 26.5869C11.5565 28.0596 11.8655 28.609 12.2534 28.7658C17.0687 30.6984 30.7957 30.6984 35.6121 28.7658C36.0024 28.6101 36.309 28.0596 36.2428 26.5869Z" fill="#ABC9C1"/>
<g opacity="0.7" filter="url(#filter0_b)">
<rect y="10.5563" width="25.5515" height="25.5515" rx="12.7758" fill="url(#paint0_linear)" fill-opacity="0.7"/>
</g>
<path d="M24.0575 17.3556L23.9018 17.3591C23.4001 17.3591 22.8937 17.2615 22.3966 17.0896L23.7648 19.1837L22.5371 20.3683L23.8008 28.0419C23.8112 28.1081 23.8681 28.1557 23.9355 28.1557C24.0017 28.1557 24.0586 28.1081 24.0702 28.0419L25.3339 20.3683L24.1051 19.1837L25.4535 17.121C25.0133 17.2499 24.5476 17.3358 24.0575 17.3556Z" fill="#ABC9C1"/>
<defs>
<filter id="filter0_b" x="-30" y="-19.4437" width="85.5515" height="85.5515" filterUnits="userSpaceOnUse" color-interpolation-filters="sRGB">
<feFlood flood-opacity="0" result="BackgroundImageFix"/>
<feGaussianBlur in="BackgroundImage" stdDeviation="15"/>
<feComposite in2="SourceAlpha" operator="in" result="effect1_backgroundBlur"/>
<feBlend mode="normal" in="SourceGraphic" in2="effect1_backgroundBlur" result="shape"/>
</filter>
<linearGradient id="paint0_linear" x1="4.36245" y1="50.4416" x2="8.20945" y2="3.06775" gradientUnits="userSpaceOnUse">
<stop stop-color="#ABC9C1"/>
<stop offset="0.905085" stop-color="white"/>
</linearGradient>
</defs>
</svg>
