<svg width="50" height="51" viewBox="0 0 50 51" fill="none" xmlns="http://www.w3.org/2000/svg">
<g clip-path="url(#clip0)">
<path d="M46.6582 7.60938C46.6605 7.38932 46.5755 7.17708 46.4212 7.02018L39.7546 0.353516C39.5977 0.19987 39.3854 0.114583 39.1654 0.117513V0.109375H7.4987C5.19857 0.112305 3.33496 1.97591 3.33203 4.27604V45.9427C3.33496 48.2428 5.19857 50.1064 7.4987 50.1094H42.4987C44.7988 50.1064 46.6624 48.2428 46.6654 45.9427L46.6582 7.60938ZM39.9987 2.95443L43.8203 6.77604H39.9987V2.95443ZM7.4987 1.77604H38.332V7.60938C38.332 8.06966 38.7051 8.44271 39.1654 8.44271H44.9987V25.1094H4.9987V4.27604C4.9987 2.89551 6.11816 1.77604 7.4987 1.77604ZM44.9987 43.4427H4.9987V26.776H44.9987V43.4427ZM42.4987 48.4427H7.4987C6.11816 48.4427 4.9987 47.3232 4.9987 45.9427V45.1094H44.9987V45.9427C44.9987 47.3232 43.8792 48.4427 42.4987 48.4427Z" fill="#ABC9C1"/>
<path d="M21.6654 42.6094C22.1257 42.6094 22.4987 42.2363 22.4987 41.776V35.9427H27.4987V41.776C27.4987 42.2363 27.8717 42.6094 28.332 42.6094C28.7923 42.6094 29.1654 42.2363 29.1654 41.776V30.1094C29.1654 28.7288 28.0459 27.6094 26.6654 27.6094H23.332C21.9515 27.6094 20.832 28.7288 20.832 30.1094V41.776C20.832 42.2363 21.2051 42.6094 21.6654 42.6094ZM22.4987 30.1094C22.4987 29.6491 22.8717 29.276 23.332 29.276H26.6654C27.1257 29.276 27.4987 29.6491 27.4987 30.1094V34.276H22.4987V30.1094Z" fill="#ABC9C1"/>
<path d="M11.6654 42.6094C12.1257 42.6094 12.4987 42.2363 12.4987 41.776V35.9427H14.9987C16.3792 35.9427 17.4987 37.0622 17.4987 38.4427V41.776C17.4987 42.2363 17.8717 42.6094 18.332 42.6094C18.7923 42.6094 19.1654 42.2363 19.1654 41.776V38.4427C19.1618 37.126 18.5339 35.8893 17.473 35.1094C18.9206 34.0443 19.5189 32.1686 18.9557 30.4623C18.3926 28.7552 16.7959 27.6042 14.9987 27.6094H11.6654C11.2051 27.6094 10.832 27.9824 10.832 28.4427V41.776C10.832 42.2363 11.2051 42.6094 11.6654 42.6094ZM12.4987 29.2761H14.9987C16.3792 29.2761 17.4987 30.3955 17.4987 31.7761C17.4987 33.1566 16.3792 34.276 14.9987 34.276H12.4987V29.2761Z" fill="#ABC9C1"/>
<path d="M31.4735 42.434C31.8489 42.5188 32.234 42.3382 32.4085 41.9953L34.9918 36.8281L37.5708 41.9953C37.7121 42.2787 38.0027 42.4571 38.3195 42.4555C38.3836 42.4551 38.4476 42.448 38.51 42.434C38.8863 42.3453 39.1518 42.0099 39.1515 41.6235V28.3124C39.1515 27.8529 38.7791 27.4805 38.3195 27.4805C37.86 27.4805 37.4876 27.8529 37.4876 28.3124V38.0995L35.7405 34.5962C35.5839 34.3339 35.3011 34.1731 34.9957 34.1731C34.6908 34.1731 34.4074 34.3339 34.2511 34.5962L32.4959 38.0995V28.3124C32.4959 27.8529 32.1235 27.4805 31.664 27.4805C31.2045 27.4805 30.832 27.8529 30.832 28.3124V41.6235C30.8317 42.0099 31.0972 42.3453 31.4735 42.434Z" fill="#ABC9C1"/>
</g>
<defs>
<clipPath id="clip0">
<rect width="50" height="50" fill="white" transform="translate(0 0.109375)"/>
</clipPath>
</defs>
</svg>
