<svg width="50" height="51" viewBox="0 0 50 51" fill="none" xmlns="http://www.w3.org/2000/svg">
<g clip-path="url(#clip0)">
<path d="M46.6582 7.60938C46.6605 7.38932 46.5755 7.17708 46.4212 7.02018L39.7546 0.353516C39.5977 0.19987 39.3854 0.114583 39.1654 0.117513V0.109375H7.4987C5.19857 0.112305 3.33496 1.97591 3.33203 4.27604V45.9427C3.33496 48.2428 5.19857 50.1064 7.4987 50.1094H42.4987C44.7988 50.1064 46.6624 48.2428 46.6654 45.9427L46.6582 7.60938ZM39.9987 2.95443L43.8203 6.77604H39.9987V2.95443ZM7.4987 1.77604H38.332V7.60938C38.332 8.06966 38.7051 8.44271 39.1654 8.44271H44.9987V25.1094H4.9987V4.27604C4.9987 2.89551 6.11816 1.77604 7.4987 1.77604ZM44.9987 43.4427H4.9987V26.776H44.9987V43.4427ZM42.4987 48.4427H7.4987C6.11816 48.4427 4.9987 47.3232 4.9987 45.9427V45.1094H44.9987V45.9427C44.9987 47.3232 43.8792 48.4427 42.4987 48.4427Z" fill="#ABC9C1"/>
<path d="M21.6654 42.6094C22.1257 42.6094 22.4987 42.2363 22.4987 41.776V35.9427H26.6654C28.0459 35.9427 29.1654 34.8232 29.1654 33.4427V30.1094C29.1654 28.7288 28.0459 27.6094 26.6654 27.6094H21.6654C21.2051 27.6094 20.832 27.9824 20.832 28.4427V41.776C20.832 42.2363 21.2051 42.6094 21.6654 42.6094ZM22.4987 29.276H26.6654C27.1257 29.276 27.4987 29.6491 27.4987 30.1094V33.4427C27.4987 33.903 27.1257 34.276 26.6654 34.276H22.4987V29.276Z" fill="#ABC9C1"/>
<path d="M33.332 42.6094H36.6654C38.0459 42.6094 39.1653 41.4899 39.1653 40.1094V35.1094C39.1653 34.6491 38.7923 34.276 38.332 34.276H34.9987C34.5384 34.276 34.1654 34.6491 34.1654 35.1094C34.1654 35.5697 34.5384 35.9427 34.9987 35.9427H37.4987V40.1094C37.4987 40.5697 37.1256 40.9427 36.6654 40.9427H33.332C32.8717 40.9427 32.4987 40.5697 32.4987 40.1094V30.1094C32.4987 29.6491 32.8717 29.276 33.332 29.276H36.6654C37.1256 29.276 37.4987 29.6491 37.4987 30.1094V31.776C37.4987 32.2363 37.8717 32.6094 38.332 32.6094C38.7923 32.6094 39.1653 32.2363 39.1653 31.776V30.1094C39.1653 28.7288 38.0459 27.6094 36.6654 27.6094H33.332C31.9515 27.6094 30.832 28.7288 30.832 30.1094V40.1094C30.832 41.4899 31.9515 42.6094 33.332 42.6094Z" fill="#ABC9C1"/>
<path d="M14.9987 42.6094C17.2988 42.6064 19.1624 40.7428 19.1654 38.4427V28.4427C19.1654 27.9824 18.7923 27.6094 18.332 27.6094C17.8717 27.6094 17.4987 27.9824 17.4987 28.4427V38.4427C17.4987 39.8232 16.3792 40.9427 14.9987 40.9427C13.6182 40.9427 12.4987 39.8232 12.4987 38.4427C12.4987 37.9824 12.1257 37.6094 11.6654 37.6094C11.2051 37.6094 10.832 37.9824 10.832 38.4427C10.835 40.7428 12.6986 42.6064 14.9987 42.6094Z" fill="#ABC9C1"/>
</g>
<defs>
<clipPath id="clip0">
<rect width="50" height="50" fill="white" transform="translate(0 0.109375)"/>
</clipPath>
</defs>
</svg>
