<svg width="72" height="70" viewBox="0 0 72 70" fill="none" xmlns="http://www.w3.org/2000/svg">
<path d="M39.5048 40.1286H41.1366L40.324 37.9805L39.5048 40.1286Z" fill="#ABC9C1"/>
<path d="M67.3198 25.156H65.7145L51.3598 12.6216C50.8053 13.5798 50.0681 14.4187 49.1964 15.0902L60.7245 25.156H27.3848L38.913 15.0902C38.0413 14.4187 37.3041 13.5787 36.7506 12.6216L22.396 25.156H20.6802C18.0989 25.156 16 27.2549 16 29.8362V48.2571C16 50.8384 18.0989 52.9373 20.6802 52.9373H67.3198C69.9011 52.9373 72 50.8384 72 48.2571V29.8362C72 27.2549 69.9011 25.156 67.3198 25.156V25.156ZM33.2572 42.3071C32.5244 46.4207 26.6444 47.1655 23.6278 43.8427C23.0186 43.1723 23.0689 42.1343 23.7394 41.5262C24.4098 40.9159 25.4478 40.9662 26.057 41.6377C26.6356 42.2754 27.5522 42.656 28.5092 42.656C29.4323 42.656 29.9606 42.1048 30.0263 41.7318C30.105 41.2943 29.4728 40.8962 28.8559 40.6687C27.2142 40.0649 25.7552 39.4163 25.6939 39.389C24.5947 38.9001 23.583 37.3623 23.8291 35.6418C24.3608 31.9382 29.3087 31.0849 32.3548 33.5976C33.5692 34.5662 32.8854 36.5452 31.3486 36.5452C30.7652 36.5452 30.3044 36.1915 30.2767 36.1362C29.0539 35.1682 27.1956 35.2787 27.0775 36.1066C27.0622 36.2116 27.072 36.3505 27.188 36.4621C27.6003 36.6415 28.7542 37.1348 29.9891 37.5898C32.8317 38.6365 33.5416 40.7124 33.2572 42.3071ZM44.4922 46.0051C43.8294 46.0051 43.2059 45.6004 42.9577 44.9441L42.3769 43.4096H38.2523L37.665 44.9485C37.3413 45.7951 36.3941 46.2195 35.5464 45.8968C34.6998 45.573 34.2755 44.6248 34.5992 43.7782C38.7664 32.8604 38.5805 33.3471 38.5903 33.323C39.2378 31.7437 41.4898 31.783 42.087 33.3646L46.0267 43.7837C46.4347 44.861 45.6319 46.0051 44.4922 46.0051V46.0051ZM53.9028 46.0379C52.5848 46.0445 50.2103 46.0674 49.8942 46.0138C49.1067 45.8793 48.5303 45.1957 48.5303 44.3973V33.7966C48.5303 32.891 49.2653 32.156 50.1709 32.156C51.0777 32.156 51.8116 32.891 51.8116 33.7966V42.7643C53.0092 42.762 53.7453 42.7566 53.8941 42.7566C54.7953 42.7566 55.5292 43.4851 55.5347 44.3874C55.5391 45.2941 54.8084 46.0324 53.9028 46.0379ZM63.0466 37.4312C63.9533 37.4312 64.6872 38.1651 64.6872 39.0718C64.6872 39.9774 63.9533 40.7124 63.0466 40.7124H60.5616V42.7063H63.3758C64.2814 42.7063 65.0164 43.4402 65.0164 44.347C65.0164 45.2526 64.2814 45.9876 63.3758 45.9876H58.9209C58.0142 45.9876 57.2803 45.2526 57.2803 44.347V33.7966C57.2803 32.891 58.0142 32.156 58.9209 32.156H63.3758C64.2814 32.156 65.0164 32.891 65.0164 33.7966C65.0164 34.7023 64.2814 35.4373 63.3758 35.4373H60.5616V37.4312H63.0466Z" fill="#ABC9C1"/>
<path d="M39.3012 10.3939C40.7279 13.961 45.6917 14.7516 48.1489 11.5333C50.7373 8.14702 48.2829 3.28125 44.0547 3.28125C40.3967 3.28125 37.8897 7.01356 39.3012 10.3939V10.3939Z" fill="#ABC9C1"/>
<g opacity="0.7" filter="url(#filter0_b)">
<rect y="28.1094" width="41" height="41" rx="20.5" fill="url(#paint0_linear)" fill-opacity="0.5"/>
</g>
<defs>
<filter id="filter0_b" x="-30" y="-1.89062" width="101" height="101" filterUnits="userSpaceOnUse" color-interpolation-filters="sRGB">
<feFlood flood-opacity="0" result="BackgroundImageFix"/>
<feGaussianBlur in="BackgroundImage" stdDeviation="15"/>
<feComposite in2="SourceAlpha" operator="in" result="effect1_backgroundBlur"/>
<feBlend mode="normal" in="SourceGraphic" in2="effect1_backgroundBlur" result="shape"/>
</filter>
<linearGradient id="paint0_linear" x1="7" y1="92.1094" x2="13.1729" y2="16.0933" gradientUnits="userSpaceOnUse">
<stop stop-color="#ABC9C1"/>
<stop offset="0.905085" stop-color="white"/>
</linearGradient>
</defs>
</svg>
