<?xml version="1.0" encoding="UTF-8"?>
<svg xmlns="http://www.w3.org/2000/svg" xmlns:xlink="http://www.w3.org/1999/xlink" width="10px" height="10px" viewBox="0 0 24 24" version="1.1">
<g id="surface1">
<path d="M 23.582031 5.703125 C 23.285156 5.40625 22.933594 5.257812 22.527344 5.257812 L 1.503906 5.257812 C 1.09375 5.257812 0.742188 5.40625 0.445312 5.703125 C 0.148438 6 0 6.351562 0 6.757812 C 0 7.164062 0.148438 7.515625 0.445312 7.8125 L 10.957031 18.328125 C 11.257812 18.625 11.609375 18.773438 12.015625 18.773438 C 12.421875 18.773438 12.773438 18.625 13.070312 18.328125 L 23.582031 7.8125 C 23.878906 7.515625 24.03125 7.164062 24.03125 6.757812 C 24.03125 6.351562 23.878906 6 23.582031 5.703125 Z M 23.582031 5.703125 "/>
</g>
</svg>
