<svg width="20" height="21" viewBox="0 0 20 21" fill="none" xmlns="http://www.w3.org/2000/svg">
<path fill-rule="evenodd" clip-rule="evenodd" d="M7.22656 5.73438C6.34204 5.73438 5.625 6.45142 5.625 7.33594V16.0078C5.625 16.8923 6.34204 17.6094 7.22656 17.6094H15.8984C16.783 17.6094 17.5 16.8923 17.5 16.0078V7.33594C17.5 6.45142 16.783 5.73438 15.8984 5.73438H7.22656ZM4.375 7.33594C4.375 5.76106 5.65169 4.48438 7.22656 4.48438H15.8984C17.4733 4.48438 18.75 5.76106 18.75 7.33594V16.0078C18.75 17.5827 17.4733 18.8594 15.8984 18.8594H7.22656C5.65169 18.8594 4.375 17.5827 4.375 16.0078V7.33594Z" fill="#ABC9C1"/>
<path fill-rule="evenodd" clip-rule="evenodd" d="M4.37315 1.35938L4.375 1.35938H12.8125L12.8143 1.35938C13.5591 1.3615 14.2728 1.65831 14.7994 2.18496C15.3261 2.71161 15.6229 3.4253 15.625 4.1701C15.625 4.17503 15.625 4.17996 15.6249 4.18489L15.6053 5.12239C15.5981 5.4675 15.3126 5.74143 14.9675 5.73424C14.6223 5.72705 14.3484 5.44146 14.3556 5.09636L14.375 4.16689C14.372 3.75482 14.207 3.36035 13.9155 3.06884C13.6226 2.77593 13.2258 2.61077 12.8115 2.60938H4.37599C3.87898 2.61107 3.4028 2.80925 3.05134 3.16071C2.69988 3.51217 2.50169 3.98836 2.5 4.48537V12.9209C2.50139 13.3351 2.66656 13.732 2.95947 14.0249C3.25239 14.3178 3.64928 14.483 4.06351 14.4844H5C5.34518 14.4844 5.625 14.7642 5.625 15.1094C5.625 15.4546 5.34518 15.7344 5 15.7344H4.0625L4.06072 15.7344C3.31592 15.7323 2.60224 15.4354 2.07558 14.9088C1.54893 14.3821 1.25212 13.6685 1.25 12.9237L1.25 12.9219V4.48438L1.25 4.48253C1.25245 3.65497 1.58228 2.862 2.16745 2.27683C2.75263 1.69165 3.54559 1.36182 4.37315 1.35938Z" fill="#ABC9C1"/>
</svg>
