<svg width="27" height="28" viewBox="0 0 27 28" fill="none" xmlns="http://www.w3.org/2000/svg">
<g clip-path="url(#clip0)">
<path d="M24.1875 4.60938H2.81248C1.26225 4.60938 0 5.87163 0 7.42191V19.7969C0 21.3472 1.26225 22.6094 2.81248 22.6094H24.1875C25.7377 22.6094 26.9999 21.3472 26.9999 19.7969V7.42191C27 5.87163 25.7377 4.60938 24.1875 4.60938ZM25.875 19.7969C25.875 20.7273 25.1179 21.4844 24.1875 21.4844H2.81248C1.88209 21.4844 1.12498 20.7273 1.12498 19.7969V7.42191C1.12498 6.49152 1.88209 5.73441 2.81248 5.73441H24.1875C25.1179 5.73441 25.875 6.49152 25.875 7.42191V19.7969H25.875Z" fill="#1DC3A6"/>
<path d="M26.4375 7.98438H0.562518C0.252018 7.98438 0 8.23639 0 8.54689V11.9219C0 12.2324 0.252018 12.4844 0.562518 12.4844H26.4375C26.748 12.4844 27.0001 12.2324 27.0001 11.9219V8.54689C27 8.23639 26.748 7.98438 26.4375 7.98438ZM25.875 11.3594H1.12498V9.10936H25.875V11.3594H25.875Z" fill="#1DC3A6"/>
<path d="M10.6875 15.8594H3.93752C3.62702 15.8594 3.375 16.1114 3.375 16.4219C3.375 16.7324 3.62702 16.9844 3.93752 16.9844H10.6875C10.998 16.9844 11.25 16.7323 11.25 16.4218C11.25 16.1113 10.998 15.8594 10.6875 15.8594Z" fill="#1DC3A6"/>
<path d="M10.6875 18.1094H3.93752C3.62702 18.1094 3.375 18.3614 3.375 18.6719C3.375 18.9824 3.62702 19.2344 3.93752 19.2344H10.6875C10.998 19.2344 11.25 18.9824 11.25 18.6719C11.25 18.3614 10.998 18.1094 10.6875 18.1094Z" fill="#1DC3A6"/>
<path d="M21.9375 14.7344H20.8125C19.8821 14.7344 19.125 15.4915 19.125 16.4219V17.5469C19.125 18.4772 19.8821 19.2344 20.8125 19.2344H21.9375C22.8679 19.2344 23.625 18.4772 23.625 17.5469V16.4219C23.625 15.4915 22.8679 14.7344 21.9375 14.7344ZM22.5 17.5469C22.5 17.8574 22.248 18.1094 21.9375 18.1094H20.8125C20.502 18.1094 20.25 17.8574 20.25 17.5469V16.4219C20.25 16.1114 20.502 15.8594 20.8125 15.8594H21.9375C22.248 15.8594 22.5 16.1114 22.5 16.4219V17.5469Z" fill="#1DC3A6"/>
</g>
<defs>
<clipPath id="clip0">
<rect width="27" height="27" fill="white" transform="translate(0 0.109375)"/>
</clipPath>
</defs>
</svg>
