<?xml version="1.0" encoding="UTF-8"?>
<svg xmlns="http://www.w3.org/2000/svg" xmlns:xlink="http://www.w3.org/1999/xlink" width="22px" height="22px" viewBox="0 0 24 24" version="1.1">
<g id="surface1">
<path  d="M 19.808594 15.175781 C 19.613281 15.175781 19.453125 15.335938 19.453125 15.535156 L 19.453125 19.929688 L 4.488281 19.929688 L 4.488281 15.535156 C 4.488281 15.335938 4.328125 15.175781 4.128906 15.175781 C 3.933594 15.175781 3.773438 15.335938 3.773438 15.535156 L 3.773438 20.285156 C 3.773438 20.480469 3.933594 20.640625 4.128906 20.640625 L 19.808594 20.640625 C 20.007812 20.640625 20.167969 20.480469 20.167969 20.285156 L 20.167969 15.535156 C 20.167969 15.335938 20.007812 15.175781 19.808594 15.175781 Z M 19.808594 15.175781 "/>
<path  d="M 11.71875 16.5 C 11.789062 16.566406 11.878906 16.601562 11.96875 16.601562 C 12.0625 16.601562 12.152344 16.566406 12.222656 16.5 L 15.3125 13.410156 C 15.449219 13.269531 15.449219 13.046875 15.3125 12.90625 C 15.171875 12.765625 14.945312 12.765625 14.808594 12.90625 L 12.328125 15.386719 L 12.328125 1.992188 C 12.328125 1.796875 12.167969 1.636719 11.972656 1.636719 C 11.773438 1.636719 11.613281 1.796875 11.613281 1.992188 L 11.613281 15.386719 L 9.132812 12.90625 C 8.996094 12.765625 8.769531 12.765625 8.628906 12.90625 C 8.492188 13.046875 8.492188 13.269531 8.628906 13.410156 Z M 11.71875 16.5 "/>
</g>
</svg>
