<svg width="18" height="19" viewBox="0 0 18 19" fill="none" xmlns="http://www.w3.org/2000/svg">
<g clip-path="url(#clip0)">
<path d="M9.0072 13.8315L4.01172 11.3926L9.00267 18.1088L9.75249 17.0997V13.4665L9.0072 13.8315Z" fill="#708299"/>
<path d="M9.00192 0.109375L3.26953 10.3952H14.7345L9.00192 0.109375Z" fill="#708299"/>
<path d="M14.7345 10.4104L9.00195 0.109375V10.4104H14.7345Z" fill="#68788E"/>
<path d="M9.00137 7.60251L8.97885 7.5918L3.26953 10.4043H3.27461L8.98393 13.2168L9.00645 13.2061L9.75119 12.8416V7.96973L9.00137 7.60251Z" fill="#3C3C47"/>
<path d="M9.00648 13.8322L9.00195 18.1094L13.9965 11.3887L9.00648 13.8322Z" fill="#68788E"/>
<path d="M14.7229 10.4043L9.00104 7.60251L8.97852 7.5918L8.9836 13.2168L9.00612 13.2061L14.7279 10.4043H14.7229Z" fill="#31313B"/>
</g>
<defs>
<clipPath id="clip0">
<rect width="18" height="18" fill="white" transform="translate(0 0.109375)"/>
</clipPath>
</defs>
</svg>
