<svg width="22" height="23" viewBox="0 0 22 23" fill="none" xmlns="http://www.w3.org/2000/svg">
<g clip-path="url(#clip0)">
<path d="M20.1803 14.1726C20.1803 15.4413 19.1516 16.47 17.8829 16.47H2.88389L5.90878 13.4451L4.82588 12.3622L0.493748 16.6944C0.194793 16.9935 0.194793 17.4781 0.493748 17.7772L4.82588 22.1094L5.90878 21.0265L2.88389 18.0016H17.8829C19.9965 17.999 21.7093 16.2862 21.7119 14.1726V11.1094H20.1803V14.1726Z" fill="#1DC3A6"/>
<path d="M1.80114 8.04617C1.80114 6.77725 2.82963 5.74876 4.09855 5.74876H19.0975L16.0726 8.77365L17.1555 9.85654L21.4877 5.52441C21.7866 5.22526 21.7866 4.74065 21.4877 4.44151L17.1555 0.109375L16.0726 1.19227L19.0975 4.21715H4.09855C1.98492 4.21959 0.271962 5.93255 0.269531 8.04617V11.1094H1.80114V8.04617Z" fill="#1DC3A6"/>
</g>
<defs>
<clipPath id="clip0">
<rect width="22" height="22" fill="white" transform="translate(0 0.109375)"/>
</clipPath>
</defs>
</svg>
