<svg width="24" height="25" viewBox="0 0 24 25" fill="none" xmlns="http://www.w3.org/2000/svg">
<path d="M22.4151 11.7956C20.1684 7.64224 16.2284 5.12891 11.8684 5.12891C7.50844 5.12891 3.56177 7.64224 1.3351 11.7956L1.14844 12.1089L1.32177 12.4289C3.56844 16.5822 7.50844 19.0956 11.8684 19.0956C16.2284 19.0956 20.1751 16.6156 22.4151 12.4289L22.5884 12.1089L22.4151 11.7956ZM11.8684 17.7289C8.1151 17.7289 4.66844 15.6356 2.66844 12.1089C4.66844 8.58224 8.1151 6.48891 11.8684 6.48891C15.6218 6.48891 19.0284 8.58891 21.0618 12.1089C19.0284 15.6356 15.6151 17.7289 11.8684 17.7289Z" fill="#878D97"/>
<path d="M12.0595 7.55676C11.1556 7.56336 10.2739 7.83768 9.52577 8.34508C8.77767 8.85248 8.19671 9.5702 7.85627 10.4076C7.51583 11.245 7.43118 12.1645 7.61302 13.0499C7.79485 13.9354 8.23502 14.7471 8.87791 15.3826C9.52081 16.018 10.3376 16.4487 11.2251 16.6202C12.1127 16.7917 13.0311 16.6964 13.8645 16.3462C14.6978 15.9961 15.4087 15.4068 15.9074 14.6528C16.406 13.8989 16.6701 13.014 16.6662 12.1101C16.6635 11.5084 16.5422 10.9131 16.3091 10.3584C16.076 9.80364 15.7358 9.30036 15.3078 8.87737C14.8799 8.45437 14.3727 8.11999 13.8152 7.89337C13.2578 7.66676 12.6612 7.55237 12.0595 7.55676ZM12.0595 15.3701C11.421 15.3635 10.7987 15.1684 10.2707 14.8093C9.74272 14.4502 9.33263 13.9431 9.09192 13.3517C8.85121 12.7602 8.79062 12.1109 8.91777 11.4851C9.04491 10.8594 9.35411 10.2852 9.80654 9.83457C10.259 9.38398 10.8345 9.07713 11.4607 8.95254C12.087 8.82795 12.7361 8.89119 13.3265 9.13431C13.9169 9.37743 14.4224 9.78959 14.7793 10.319C15.1363 10.8485 15.3288 11.4716 15.3328 12.1101C15.3346 12.5398 15.2511 12.9656 15.087 13.3628C14.923 13.76 14.6817 14.1207 14.3772 14.424C14.0727 14.7272 13.7111 14.967 13.3132 15.1294C12.9154 15.2918 12.4892 15.3736 12.0595 15.3701Z" fill="#878D97"/>
</svg>
