<svg width="24" height="21" viewBox="0 0 24 21" fill="none" xmlns="http://www.w3.org/2000/svg">
<path d="M21.2402 1.81399C20.6828 1.25658 20.021 0.814466 19.2927 0.512931C18.5643 0.211395 17.7837 0.056345 16.9954 0.056641C16.207 0.0569371 15.4265 0.212573 14.6984 0.514656C13.9703 0.816738 13.3088 1.25934 12.7518 1.81718L12.0247 2.55312L11.3037 1.81877L11.299 1.81409C10.7418 1.25693 10.0804 0.81497 9.35245 0.513439C8.62449 0.211908 7.84427 0.056712 7.05634 0.056712C6.2684 0.056712 5.48818 0.211908 4.76023 0.513439C4.03227 0.81497 3.37083 1.25693 2.81368 1.81409L2.48977 2.13799C1.36456 3.26321 0.732422 4.78933 0.732422 6.38063C0.732422 7.97192 1.36456 9.49804 2.48977 10.6233L11.0385 19.1719L12.0039 20.1834L12.0269 20.1603L12.0519 20.1853L12.9564 19.231L21.5642 10.6231C22.6877 9.49701 23.3187 7.97122 23.3187 6.38049C23.3187 4.78975 22.6877 3.26396 21.5642 2.13785L21.2402 1.81399ZM20.5033 9.56248L12.0269 18.039L3.55037 9.56248C2.70646 8.71856 2.23236 7.57398 2.23236 6.38051C2.23236 5.18704 2.70646 4.04245 3.55037 3.19854L3.87432 2.87463C4.71782 2.03114 5.86172 1.55707 7.0546 1.55663C8.24748 1.55618 9.39174 2.02938 10.2359 2.87224L12.0215 4.69038L13.8156 2.87463C14.2334 2.45677 14.7295 2.1253 15.2755 1.89915C15.8214 1.673 16.4066 1.5566 16.9976 1.5566C17.5885 1.5566 18.1737 1.673 18.7196 1.89915C19.2656 2.1253 19.7617 2.45677 20.1796 2.87463L20.5035 3.19849C21.3461 4.0431 21.8193 5.18746 21.8193 6.38052C21.8192 7.57359 21.346 8.71792 20.5033 9.56248Z" fill="#878D97"/>
</svg>
