<svg width="23" height="21" viewBox="0 0 23 21" fill="none" xmlns="http://www.w3.org/2000/svg">
<path d="M20.5078 2.08938C19.9504 1.53197 19.2886 1.08986 18.5602 0.788321C17.8319 0.486786 17.0512 0.331736 16.2629 0.332032C15.4746 0.332328 14.6941 0.487964 13.966 0.790046C13.2378 1.09213 12.5764 1.53474 12.0194 2.09257L11.2923 2.82851L10.5713 2.09416L10.5666 2.08948C10.0094 1.53232 9.34798 1.09036 8.62003 0.78883C7.89207 0.487299 7.11185 0.332103 6.32391 0.332103C5.53598 0.332103 4.75576 0.487299 4.0278 0.78883C3.29985 1.09036 2.63841 1.53232 2.08126 2.08948L1.75735 2.41338C0.632138 3.5386 0 5.06472 0 6.65602C0 8.24731 0.632138 9.77343 1.75735 10.8986L10.3061 19.4473L11.2715 20.4588L11.2945 20.4357L11.3195 20.4607L12.224 19.5064L20.8317 10.8985C21.9553 9.7724 22.5862 8.24661 22.5862 6.65588C22.5862 5.06514 21.9553 3.53935 20.8317 2.41324L20.5078 2.08938Z" fill="#FF6868"/>
</svg>
