<svg width="32" height="30" viewBox="0 0 32 30" fill="none" xmlns="http://www.w3.org/2000/svg">
<path d="M5.69141 2.47266C1.67578 3.82032 0.625001 4.19141 0.488282 4.32423L0.320312 4.4922V28.8555L0.500001 29.0391C0.601563 29.1367 0.75 29.2188 0.828125 29.2188C0.910156 29.2188 3.20313 28.4727 5.93359 27.5664L10.8906 25.9141L12.7969 26.7266C13.8438 27.1719 14.7656 27.5391 14.8555 27.5391C15.207 27.5391 15.4375 27.1875 15.3398 26.8086C15.2773 26.5664 15.2148 26.5352 12.8867 25.5469L11.5 24.9609V2.26563L12.1406 2.60157C12.4883 2.78907 14.3516 3.77735 16.2813 4.80079L19.793 6.66016L19.8242 11.6328L19.8555 16.6094L20.0234 16.7774C20.25 17.0078 20.5742 17.0078 20.8047 16.7774L20.9727 16.6094L20.9922 11.6524L21.0078 6.70313L25.1211 5.00782C27.3828 4.08204 29.25 3.31641 29.2812 3.31641C29.3086 3.31641 29.3242 6.66016 29.3242 10.7461C29.3242 18.4102 29.3242 18.3281 29.5664 18.5156C29.6758 18.5977 29.9961 18.6211 30.1641 18.5586C30.4492 18.4492 30.4453 18.6836 30.4453 10.2109V2.25001L30.2656 2.07032C30.1562 1.96485 30.0156 1.88673 29.9219 1.88673C29.8359 1.88673 27.6602 2.75391 25.0977 3.8086L20.4297 5.73438L15.75 3.25001C12.543 1.5547 11.0078 0.769538 10.8906 0.781257C10.7969 0.781257 8.46094 1.54688 5.69141 2.47266ZM10.3203 13.5274V24.918L5.92188 26.3867C3.50781 27.1914 1.51172 27.8516 1.48047 27.8516C1.45703 27.8516 1.4375 22.7266 1.4375 16.4609V5.06251L5.82813 3.60157C8.25 2.79688 10.2461 2.13673 10.2773 2.13673C10.3008 2.13673 10.3203 7.26173 10.3203 13.5274Z" fill="black"/>
<path d="M22.2773 19.1172C21.8359 19.2344 21.2891 19.3985 21.0664 19.4844C19.1758 20.1993 17.4687 21.6446 16.1328 23.6719L15.8359 24.1133L16.1523 24.5821C18.8789 28.6212 23.0078 30.129 26.8281 28.4844C28.543 27.7462 30.0977 26.3594 31.4258 24.3985L31.6797 24.0118L31.375 23.5704C30.3125 22.0313 29.1094 20.8712 27.7656 20.0821C26.8555 19.5508 25.9727 19.2422 24.7187 19.0313C23.7109 18.8555 23.2383 18.8751 22.2773 19.1172ZM24.4766 20.1446C25.6484 20.5079 26.3437 21.4727 26.3437 22.7188C26.3398 23.254 26.2656 23.5977 26.0586 24.043C25.3242 25.5899 23.0156 25.9688 21.7305 24.7501C20.4687 23.5587 20.6406 21.3712 22.0586 20.461C22.7305 20.0313 23.6992 19.9024 24.4766 20.1446ZM27.8672 21.4024C28.3867 21.7774 29.4805 22.8829 29.9414 23.4844C30.3867 24.086 30.4062 23.9805 29.7031 24.8555C28.6367 26.1797 27.3867 27.1602 26.1289 27.6719C25.2031 28.0391 24.793 28.1172 23.7344 28.1172C22.8867 28.1172 22.6992 28.1016 22.1523 27.9571C20.5664 27.5274 19.0273 26.4493 17.7422 24.8633C17.1836 24.168 17.1641 24.1251 17.3437 23.8633C17.6562 23.4219 18.2578 22.7071 18.7031 22.2657C19.1211 21.8594 19.9961 21.1446 20.082 21.1446C20.1016 21.1446 20.0469 21.3477 19.9609 21.5899C19.75 22.1797 19.7227 23.211 19.9102 23.754C20.2773 24.8399 21.0078 25.7071 21.9336 26.168C23.1016 26.7383 24.1211 26.7383 25.2891 26.168C25.9336 25.8516 26.6367 25.1797 26.9844 24.5587C27.5664 23.504 27.6172 22.3047 27.1211 21.211C27.0352 21.0313 26.9648 20.8712 26.9648 20.8516C26.9648 20.8087 27.457 21.1133 27.8672 21.4024Z" fill="black"/>
<path d="M29.0595 29L30 28.5092L17.9405 17L17 17.4908L29.0595 29Z" fill="black"/>
</svg>
