<svg width="40" height="41" viewBox="0 0 40 41" fill="none" xmlns="http://www.w3.org/2000/svg">
<g clip-path="url(#clip0)">
<path d="M16.0459 20.6581C19.2556 20.6581 21.8573 18.0564 21.8573 14.8466C21.8573 11.6369 19.2556 9.03516 16.0459 9.03516C12.8361 9.03516 10.2344 11.6369 10.2344 14.8466C10.2381 18.0547 12.8378 20.6544 16.0459 20.6581ZM16.0459 10.7513C18.3073 10.7513 20.1405 12.5846 20.1405 14.846C20.1405 17.1074 18.3073 18.9406 16.0459 18.9406C13.7844 18.9406 11.9512 17.1074 11.9512 14.846C11.9539 12.5856 13.7854 10.754 16.0459 10.7513Z" fill="#ABC9C1"/>
<path d="M35.7079 4.22656H4.29214C1.92274 4.22925 0.00268259 6.14931 0 8.5187V31.6963C0.00268259 34.0657 1.92274 35.9857 4.29214 35.9884H35.7079C38.0773 35.9857 39.9974 34.0657 40.0001 31.6963V8.5187C39.9974 6.14931 38.0773 4.22925 35.7079 4.22656ZM4.29214 5.94342H35.7079C37.1294 5.9451 38.2815 7.09693 38.2832 8.5187V25.4428L33.1471 18.1656C32.3503 17.0373 31.0593 16.3609 29.6781 16.3488C28.2966 16.3368 26.9939 16.99 26.1777 18.1046L20.3317 26.0863C19.5178 27.2019 17.9676 27.4749 16.8218 26.7043L12.4512 23.7796C11.0157 22.8166 9.14226 22.8102 7.70037 23.7638L1.71719 27.7485V8.5187C1.71887 7.09727 2.8707 5.9451 4.29214 5.94342ZM35.7079 34.2715H4.29214C2.87037 34.2699 1.71853 33.1177 1.71686 31.6963V29.8117L8.64799 25.196C9.51279 24.625 10.6355 24.6293 11.4959 25.2064L15.8665 28.1314C17.7765 29.4157 20.3602 28.9604 21.7162 27.1007L27.5622 19.1189C28.0518 18.45 28.8335 18.058 29.6624 18.0654C30.4913 18.0727 31.2659 18.4785 31.7437 19.1555L38.2825 28.4201V31.6963C38.2809 33.1177 37.129 34.2695 35.7079 34.2715Z" fill="#ABC9C1"/>
</g>
<defs>
<clipPath id="clip0">
<rect width="40" height="40" fill="white" transform="translate(0 0.109375)"/>
</clipPath>
</defs>
</svg>
