<svg width="20" height="21" viewBox="0 0 20 21" fill="none" xmlns="http://www.w3.org/2000/svg">
<path d="M10 0.111328C4.486 0.111328 0 4.59715 0 10.1108C0 15.6245 4.486 20.1103 10 20.1103C15.514 20.1103 20 15.6245 20 10.1108C20 4.59715 15.514 0.111328 10 0.111328ZM10 18.2922C5.48855 18.2922 1.81818 14.6221 1.81818 10.1108C1.81818 5.59963 5.48855 1.92951 10 1.92951C14.5115 1.92951 18.1818 5.59963 18.1818 10.1108C18.1818 14.6221 14.5115 18.2922 10 18.2922Z" fill="#20C4A7"/>
<path d="M9.99893 7.98828C9.49687 7.98828 9.08984 8.39531 9.08984 8.89737V14.9569C9.08984 15.459 9.49687 15.866 9.99893 15.866C10.501 15.866 10.908 15.459 10.908 14.9569V8.89737C10.908 8.39537 10.501 7.98828 9.99893 7.98828Z" fill="#20C4A7"/>
<path d="M9.99893 4.35156C9.75954 4.35156 9.52554 4.44853 9.3559 4.61762C9.18681 4.78671 9.08984 5.02126 9.08984 5.26065C9.08984 5.50005 9.18681 5.73399 9.3559 5.90368C9.525 6.07277 9.75954 6.16974 9.99893 6.16974C10.2383 6.16974 10.4723 6.07277 10.6419 5.90368C10.811 5.73399 10.908 5.50005 10.908 5.26065C10.908 5.02126 10.811 4.78671 10.6419 4.61762C10.4723 4.44847 10.2383 4.35156 9.99893 4.35156Z" fill="#20C4A7"/>
</svg>
