<svg width="22" height="23" viewBox="0 0 22 23" fill="none" xmlns="http://www.w3.org/2000/svg">
<path d="M12.4156 9.69364C11.6648 8.94311 10.6466 8.52148 9.58494 8.52148C8.5233 8.52148 7.50512 8.94311 6.75427 9.69364L3.92269 12.5243C3.17183 13.2752 2.75 14.2936 2.75 15.3554C2.75 16.4173 3.17183 17.4357 3.92269 18.1866C4.67355 18.9374 5.69194 19.3592 6.75382 19.3592C7.81569 19.3592 8.83408 18.9374 9.58494 18.1866L11.0003 16.7712" stroke="#1DC3A6" stroke-width="2" stroke-linecap="round" stroke-linejoin="round"/>
<path d="M9.58594 12.525C10.3368 13.2755 11.355 13.6971 12.4166 13.6971C13.4782 13.6971 14.4964 13.2755 15.2473 12.525L18.0789 9.69432C18.8297 8.94345 19.2515 7.92507 19.2515 6.86319C19.2515 5.80131 18.8297 4.78293 18.0789 4.03207C17.328 3.2812 16.3096 2.85938 15.2477 2.85938C14.1858 2.85938 13.1675 3.2812 12.4166 4.03207L11.0013 5.4474" stroke="#1DC3A6" stroke-width="2" stroke-linecap="round" stroke-linejoin="round"/>
</svg>
