<svg width="16" height="24" viewBox="0 0 16 24" fill="none" xmlns="http://www.w3.org/2000/svg">
<path d="M8.0002 5.19995C6.4538 5.19995 5.2002 6.45355 5.2002 7.99995C5.2002 9.54635 6.4538 10.8 8.0002 10.8C9.54585 10.7982 10.7984 9.5456 10.8002 7.99995C10.8002 6.45355 9.5466 5.19995 8.0002 5.19995ZM8.0002 9.99995C6.89565 9.99995 6.0002 9.1045 6.0002 7.99995C6.0002 6.8954 6.89565 5.99995 8.0002 5.99995C9.1042 6.00125 9.9989 6.89595 10.0002 7.99995C10.0002 9.1045 9.10475 9.99995 8.0002 9.99995Z" fill="black"/>
<path d="M8 0C3.5817 0 0 3.5817 0 8C0 12.2696 7.354 23.352 7.6672 23.822C7.7414 23.9333 7.8663 24 8 24C8.1337 24 8.2586 23.9333 8.3328 23.822C8.646 23.352 16 12.2696 16 8C16 3.5817 12.4183 0 8 0ZM8 22.8692C6.542 20.6204 0.8 11.536 0.8 8C0.80465 4.02545 4.02545 0.80465 8 0.8C11.9746 0.80465 15.1954 4.02545 15.2 8C15.2 11.5352 9.458 20.6204 8 22.8692Z" fill="black"/>
</svg>
