<svg width="17" height="16" viewBox="0 0 17 16" fill="none" xmlns="http://www.w3.org/2000/svg">
<path d="M1.6843 15.4816C1.56868 15.4814 1.45437 15.4571 1.34864 15.4103C1.24291 15.3636 1.14806 15.2953 1.07013 15.2099C0.9908 15.1252 0.930262 15.0247 0.892492 14.915C0.854721 14.8053 0.840571 14.6888 0.850968 14.5732L1.05513 12.3282L10.4868 2.8999L13.4343 5.84657L4.00514 15.2741L1.76013 15.4782C1.73492 15.4806 1.70962 15.4817 1.6843 15.4816ZM14.0226 5.2574L11.076 2.31073L12.8435 0.543234C12.9209 0.465753 13.0128 0.404287 13.1139 0.362351C13.2151 0.320414 13.3235 0.298828 13.4331 0.298828C13.5426 0.298828 13.651 0.320414 13.7522 0.362351C13.8533 0.404287 13.9452 0.465753 14.0226 0.543234L15.7901 2.31073C15.8676 2.38813 15.9291 2.48004 15.971 2.5812C16.013 2.68237 16.0345 2.7908 16.0345 2.90032C16.0345 3.00983 16.013 3.11827 15.971 3.21943C15.9291 3.3206 15.8676 3.41251 15.7901 3.4899L14.0235 5.25657L14.0226 5.2574Z" fill="#ABC9C1"/>
</svg>
