<svg width="20" height="21" viewBox="0 0 20 21" fill="none" xmlns="http://www.w3.org/2000/svg">
<path d="M18.9025 12.5037L17.3358 12.7029C17.2067 13.1004 17.0475 13.4837 16.8617 13.8479L17.8292 15.0937C18.2208 15.5979 18.175 16.3095 17.7275 16.7429L16.415 18.0554C15.9775 18.507 15.2658 18.552 14.7608 18.1612L13.5167 17.1937C13.1525 17.3795 12.7692 17.5387 12.3708 17.6679L12.1717 19.232C12.0967 19.8595 11.5642 20.332 10.9333 20.332H9.06667C8.43583 20.332 7.90333 19.8595 7.82833 19.2345L7.62917 17.6679C7.23083 17.5387 6.8475 17.3804 6.48333 17.1937L5.23833 18.1612C4.735 18.552 4.02333 18.507 3.58917 18.0595L2.27667 16.7479C1.825 16.3095 1.77917 15.5979 2.17083 15.0929L3.13833 13.8479C2.95167 13.4837 2.79333 13.1004 2.66417 12.7029L1.1 12.5037C0.4725 12.4287 0 11.8962 0 11.2654V9.3987C0 8.76787 0.4725 8.23536 1.0975 8.16037L2.66417 7.9612C2.79333 7.5637 2.9525 7.18036 3.13833 6.8162L2.17083 5.57036C1.77917 5.0662 1.825 4.35453 2.2725 3.9212L3.585 2.6087C4.02333 2.15787 4.73417 2.11287 5.23917 2.5037L6.48417 3.4712C6.84833 3.28453 7.23167 3.12536 7.62917 2.99703L7.82833 1.4337C7.90333 0.804533 8.43583 0.332031 9.06667 0.332031H10.9333C11.5642 0.332031 12.0967 0.804531 12.1717 1.42953L12.3708 2.9962C12.7683 3.12537 13.1517 3.28453 13.5158 3.47037L14.7617 2.50286C15.2658 2.1112 15.9775 2.15703 16.4108 2.60453L17.7233 3.91703C18.175 4.35536 18.2208 5.0662 17.8292 5.5712L16.8617 6.8162C17.0483 7.18036 17.2075 7.5637 17.3358 7.9612L18.8992 8.16037C19.5267 8.23536 19.9992 8.76787 19.9992 9.3987V11.2654C20 11.8962 19.5275 12.4287 18.9025 12.5037ZM10 6.16537C7.7025 6.16537 5.83333 8.03453 5.83333 10.332C5.83333 12.6295 7.7025 14.4987 10 14.4987C12.2975 14.4987 14.1667 12.6295 14.1667 10.332C14.1667 8.03453 12.2975 6.16537 10 6.16537Z" fill="#ABC9C1"/>
</svg>
