<svg width="20" height="21" viewBox="0 0 20 21" fill="none" xmlns="http://www.w3.org/2000/svg">
<path d="M19.7029 4.22304C19.0071 4.53137 18.2596 4.7397 17.4738 4.83387C18.2846 4.3487 18.8912 3.58509 19.1804 2.68554C18.4186 3.13803 17.5849 3.45653 16.7154 3.6272C16.1307 3.00292 15.3563 2.58914 14.5124 2.4501C13.6684 2.31105 12.8022 2.45453 12.0481 2.85825C11.2941 3.26196 10.6944 3.90334 10.3422 4.68279C9.99003 5.46224 9.90503 6.33616 10.1004 7.16887C8.55682 7.09137 7.04677 6.69016 5.66827 5.99129C4.28977 5.29242 3.07362 4.3115 2.09875 3.1122C1.76542 3.6872 1.57375 4.35387 1.57375 5.06387C1.57338 5.70303 1.73078 6.3324 2.03198 6.89615C2.33319 7.45989 2.76888 7.94057 3.30042 8.29554C2.68398 8.27592 2.08114 8.10936 1.54208 7.8097V7.8597C1.54202 8.75615 1.85211 9.62502 2.41974 10.3189C2.98736 11.0127 3.77756 11.4888 4.65625 11.6664C4.0844 11.8211 3.48486 11.8439 2.90292 11.733C3.15083 12.5044 3.63375 13.1789 4.28406 13.6621C4.93437 14.1454 5.71951 14.4132 6.52958 14.428C5.15444 15.5075 3.45616 16.0931 1.70792 16.0905C1.39823 16.0906 1.08881 16.0725 0.78125 16.0364C2.55581 17.1773 4.62153 17.7829 6.73125 17.7805C13.8729 17.7805 17.7771 11.8655 17.7771 6.73554C17.7771 6.56887 17.7729 6.40054 17.7654 6.23387C18.5248 5.68468 19.1803 5.00462 19.7013 4.22554L19.7029 4.22304Z" fill="#5DA9DD"/>
</svg>
