<svg width="50" height="51" viewBox="0 0 50 51" fill="none" xmlns="http://www.w3.org/2000/svg">
<path d="M49.9676 49.0383L48.7176 44.0383C48.1245 41.6127 46.3265 39.662 43.9572 38.8737L34.7905 35.8195C32.555 34.8883 31.5322 31.2883 31.3113 29.9216C33.0146 28.5052 34.1106 26.4899 34.3738 24.2903C34.3362 23.9146 34.4248 23.5371 34.6258 23.2174C34.9506 23.136 35.2165 22.9034 35.3404 22.5924C35.9402 21.14 36.3166 19.6053 36.4571 18.0403C36.4574 17.9553 36.4469 17.8706 36.4258 17.7883C36.2766 17.1802 35.9191 16.6436 35.4154 16.2716V10.7486C35.4154 7.39238 34.3904 6.01533 33.3112 5.21738C33.1051 3.60078 31.3739 0.332031 24.9989 0.332031C19.3429 0.559766 14.8099 5.09277 14.5822 10.7487V16.2717C14.0784 16.6437 13.7209 17.1803 13.5717 17.7884C13.5506 17.8707 13.5402 17.9555 13.5405 18.0404C13.6807 19.6062 14.0572 21.1416 14.6572 22.5946C14.7474 22.8891 14.984 23.1155 15.2822 23.1926C15.3989 23.2509 15.6176 23.553 15.6176 24.2905C15.8824 26.4964 16.9847 28.5162 18.6968 29.9322C18.4781 31.2968 17.4614 34.8947 15.2885 35.803L6.04055 38.8738C3.67307 39.662 1.8762 41.6107 1.28225 44.0343L0.0322527 49.0343C-0.109251 49.5919 0.228054 50.1587 0.785671 50.3002C0.868971 50.3214 0.954616 50.3321 1.04055 50.3322H48.9573C49.5325 50.332 49.9988 49.8655 49.9987 49.2902C49.9986 49.2052 49.9881 49.1206 49.9676 49.0383Z" fill="#ABC9C1"/>
</svg>
