<svg width="24" height="25" viewBox="0 0 24 25" fill="none" xmlns="http://www.w3.org/2000/svg">
<path d="M22.9674 5.69027C22.8632 5.58505 22.739 5.50161 22.6022 5.4448C22.4654 5.388 22.3187 5.35896 22.1706 5.35938H21.375V3.48438C21.3747 3.18611 21.256 2.90016 21.0451 2.68925C20.8342 2.47834 20.5483 2.35971 20.25 2.35938H4.06064C3.18261 2.35939 2.34054 2.70819 1.71968 3.32905C1.09882 3.94992 0.750012 4.79198 0.75 5.67002V18.5487C0.750012 19.4268 1.09882 20.2688 1.71968 20.8897C2.34054 21.5106 3.18261 21.8594 4.06064 21.8594H22.1263C22.4238 21.8588 22.7091 21.7406 22.9198 21.5305C23.1306 21.3204 23.2497 21.0355 23.2513 20.738L23.2955 6.48822C23.2964 6.34011 23.2679 6.19329 23.2116 6.0563C23.1553 5.91931 23.0723 5.79489 22.9674 5.69027ZM21.7525 20.3594H4.06064C3.58043 20.3594 3.11989 20.1686 2.78032 19.8291C2.44076 19.4895 2.25 19.0289 2.25 18.5487V5.67002C2.25 5.1898 2.44076 4.72926 2.78032 4.3897C3.11989 4.05014 3.58043 3.85938 4.06064 3.85938H19.875V5.35938H4.125V6.85938H21.7944L21.7525 20.3594Z" fill="#1DC3A6"/>
<path d="M18.375 12.4844H19.875V13.9844H18.375V12.4844Z" fill="#1DC3A6"/>
</svg>
