<svg width="94" height="16" viewBox="0 0 94 16" fill="none" xmlns="http://www.w3.org/2000/svg">
<path d="M0 14.9034V0.522303C0 0.42278 0.082936 0.339844 0.182459 0.339844H0.680073C0.7796 0.339844 0.862533 0.42278 0.862533 0.522303V7.26497H9.81133V0.522303C9.81133 0.42278 9.89427 0.339844 9.9938 0.339844H10.4914C10.5909 0.339844 10.6739 0.42278 10.6739 0.522303V14.9034C10.6739 15.0029 10.5909 15.0859 10.4914 15.0859H9.9938C9.89427 15.0859 9.81133 15.0029 9.81133 14.9034V8.11097H0.862533V14.9034C0.862533 15.0029 0.7796 15.0859 0.680073 15.0859H0.182459C0.082936 15.0859 0 15.0029 0 14.9034Z" fill="#171B21"/>
<path d="M13.0293 7.6137C13.0293 5.51539 13.7343 3.74885 15.1442 2.31406C16.5541 0.879263 18.2958 0.166016 20.3774 0.166016C22.4508 0.166016 24.1925 0.879263 25.6107 2.31406C27.0206 3.74885 27.7256 5.51539 27.7256 7.6137C27.7256 9.77003 27.0206 11.5863 25.6107 13.0626C24.2008 14.5388 22.4592 15.277 20.3774 15.277C18.304 15.277 16.5624 14.5388 15.1442 13.0626C13.7343 11.578 13.0293 9.77003 13.0293 7.6137ZM13.9665 7.6137C13.9665 9.5295 14.5802 11.1468 15.7994 12.4572C17.0268 13.7675 18.5529 14.4144 20.3774 14.4144C22.202 14.4144 23.7281 13.7592 24.9555 12.4572C26.183 11.1468 26.7884 9.53776 26.7884 7.6137C26.7884 5.73932 26.1747 4.17182 24.9555 2.9112C23.7281 1.65057 22.202 1.02026 20.3774 1.02026C18.5529 1.02026 17.0268 1.65057 15.7994 2.9112C14.5802 4.16353 13.9665 5.73102 13.9665 7.6137Z" fill="#171B21"/>
<path d="M42.4214 0.339844L36.6491 10.4498L30.8767 0.339844H30.0391V14.9449C30.0391 15.0278 30.1054 15.0942 30.1883 15.0942H30.8269C30.9099 15.0942 30.9762 15.0278 30.9762 14.9449C30.9762 13.676 30.9845 4.48664 30.9845 2.25566L36.2509 11.6274H37.0471L42.3136 2.25566C42.3136 4.48664 42.3219 13.676 42.3219 14.9449C42.3219 15.0278 42.3882 15.0942 42.4711 15.0942H43.1098C43.1927 15.0942 43.2591 15.0278 43.2591 14.9449V0.339844H42.4214Z" fill="#171B21"/>
<path d="M46.6855 15.0191V0.414062H55.4851C55.5514 0.414062 55.6011 0.463825 55.6011 0.530173V1.12731C55.6011 1.19366 55.5514 1.24342 55.4851 1.24342H47.5398V7.23139H54.5561C54.6474 7.23139 54.722 7.30606 54.722 7.39726V7.89492C54.722 7.98612 54.6474 8.06079 54.5561 8.06079H47.5398V14.1815H55.8583C55.9246 14.1815 55.9744 14.2312 55.9744 14.2975V14.8947C55.9744 14.9611 55.9246 15.0108 55.8583 15.0108H46.6855V15.0191Z" fill="#171B21"/>
<path d="M18.3125 4.89332V10.6242C18.3125 10.8979 18.611 11.0637 18.8516 10.9227L23.5624 8.06148C23.7863 7.92882 23.7863 7.60535 23.5624 7.46435L18.8516 4.60305C18.6194 4.45376 18.3125 4.61964 18.3125 4.89332Z" fill="#1DC3A6"/>
<path d="M62.0193 15.8325C60.4186 15.8325 59.3487 15.3847 58.3783 14.5138C57.5158 13.7425 57.0182 12.6975 56.7694 11.5198C56.7031 11.1798 56.8855 10.8481 57.2089 10.7236L57.4743 10.6241C57.8061 10.4997 58.1793 10.6905 58.2623 11.0471C58.7765 13.3278 60.1449 14.2816 62.0109 14.2816C63.0228 14.2816 63.8853 14.0411 64.499 13.4854C65.1625 12.88 65.5191 11.9843 65.5606 10.8397V0.514203C65.5606 0.232221 65.7928 0 66.0748 0H66.5393C66.821 0 67.0537 0.232221 67.0537 0.514203L67.1283 10.9061C67.145 14.0493 64.9801 15.8325 62.0193 15.8325Z" fill="#171B21"/>
<path d="M81.4932 14.8539L75.5799 0.41468C75.4632 0.20734 75.2892 0 74.9905 0H74.7005C74.4019 0 74.1279 0.190753 74.0119 0.472735L68.2312 14.9534C68.1565 15.1358 68.2979 15.3349 68.4965 15.3266L69.6992 15.2934L71.5572 10.649H78.1259L79.9919 15.31H81.1859C81.4265 15.31 81.5839 15.0695 81.4932 14.8539ZM72.1545 9.15613L74.8332 2.44661L77.5285 9.15613H72.1545Z" fill="#171B21"/>
<path d="M91.9006 7.48913C92.7133 6.80073 93.4933 5.79723 93.4933 4.63613V3.77359C93.4933 1.69189 91.7019 0 89.6199 0H83.3666C83.0766 0 82.8359 0.240515 82.8359 0.530791V6.91687V8.40973V14.9534C82.8359 15.2022 83.0433 15.4095 83.2919 15.4095H89.9599C92.4233 15.4095 93.9993 13.6347 93.9993 11.4535V10.8729C94.0153 9.45473 93.3353 8.24387 91.9006 7.48913ZM84.3366 1.49285H89.6279C90.8886 1.49285 91.9093 2.51296 91.9093 3.77359V4.64442C91.9093 5.90505 90.8886 6.92513 89.6279 6.92513H84.3366V1.49285ZM92.4313 11.4535C92.4313 12.8136 91.3286 13.9167 89.9686 13.9167H84.3366V8.40973H89.6279H89.9686C91.3286 8.40973 92.4313 9.51273 92.4313 10.8729V11.4535Z" fill="#171B21"/>
</svg>
