<svg width="68" height="26" viewBox="0 0 68 26" fill="none" xmlns="http://www.w3.org/2000/svg">
<path d="M4.63299 9.95192C5.82099 8.10392 7.911 7.17992 10.903 7.17992V11.1069C10.551 11.0409 10.232 11.0079 9.94599 11.0079C8.33999 11.0079 7.08599 11.4809 6.18399 12.4269C5.28199 13.3509 4.83099 14.6929 4.83099 16.4529V24.9999H0.705994V7.37792H4.63299V9.95192Z" fill="#111111"/>
<path d="M30.8072 16.2879C30.8072 16.5739 30.7852 16.9809 30.7411 17.5089H16.9142C17.1562 18.8069 17.7832 19.8409 18.7952 20.6109C19.8292 21.3589 21.1051 21.7329 22.6231 21.7329C24.5591 21.7329 26.1542 21.0949 27.4082 19.8189L29.6192 22.3599C28.8271 23.3059 27.8262 24.0209 26.6161 24.5049C25.4061 24.9889 24.0422 25.2309 22.5242 25.2309C20.5882 25.2309 18.8831 24.8459 17.4091 24.0759C15.9351 23.3059 14.7912 22.2389 13.9771 20.8749C13.1852 19.4889 12.7892 17.9269 12.7892 16.1889C12.7892 14.4729 13.1741 12.9329 13.9441 11.5689C14.7361 10.1829 15.8251 9.10492 17.2111 8.33492C18.5971 7.56492 20.1592 7.17992 21.8972 7.17992C23.6132 7.17992 25.1422 7.56492 26.4841 8.33492C27.8482 9.08292 28.9042 10.1499 29.6522 11.5359C30.4222 12.8999 30.8072 14.4839 30.8072 16.2879ZM21.8972 10.4799C20.5771 10.4799 19.4552 10.8759 18.5312 11.6679C17.6292 12.4379 17.0791 13.4719 16.8811 14.7699H26.8802C26.7042 13.4939 26.1651 12.4599 25.2631 11.6679C24.3611 10.8759 23.2392 10.4799 21.8972 10.4799Z" fill="#111111"/>
<path d="M41.0181 7.17992C43.6141 7.17992 45.5941 7.80692 46.9581 9.06092C48.3441 10.2929 49.0371 12.1629 49.0371 14.6709V24.9999H45.1431V22.8549C44.6371 23.6249 43.9111 24.2189 42.9651 24.6369C42.0411 25.0329 40.9191 25.2309 39.5991 25.2309C38.2791 25.2309 37.1241 25.0109 36.1341 24.5709C35.1441 24.1089 34.3741 23.4819 33.8241 22.6899C33.2961 21.8759 33.0321 20.9629 33.0321 19.9509C33.0321 18.3669 33.6151 17.1019 34.7811 16.1559C35.9691 15.1879 37.8281 14.7039 40.3581 14.7039H44.9121V14.4399C44.9121 13.2079 44.5381 12.2619 43.7901 11.6019C43.0641 10.9419 41.9751 10.6119 40.5231 10.6119C39.5331 10.6119 38.5541 10.7659 37.5861 11.0739C36.6401 11.3819 35.8371 11.8109 35.1771 12.3609L33.5601 9.35792C34.4841 8.65392 35.5951 8.11492 36.8931 7.74092C38.1911 7.36692 39.5661 7.17992 41.0181 7.17992ZM40.4571 22.2279C41.4911 22.2279 42.4041 21.9969 43.1961 21.5349C44.0101 21.0509 44.5821 20.3689 44.9121 19.4889V17.4429H40.6551C38.2791 17.4429 37.0911 18.2239 37.0911 19.7859C37.0911 20.5339 37.3881 21.1279 37.9821 21.5679C38.5761 22.0079 39.4011 22.2279 40.4571 22.2279Z" fill="#111111"/>
<path d="M54.331 0.513916H58.456V24.9999H54.331V0.513916Z" fill="#111111"/>
<path d="M68 22.5C68 23.8807 66.8807 25 65.5 25C64.1193 25 63 23.8807 63 22.5C63 21.1193 64.1193 20 65.5 20C66.8807 20 68 21.1193 68 22.5Z" fill="#1DC3A6"/>
</svg>
