<svg width="24" height="24" viewBox="0 0 24 24" fill="none" xmlns="http://www.w3.org/2000/svg">
<path d="M21.8593 16.0586L20.5331 20.5661L17.9297 19.8504L21.8593 16.0586Z" fill="#E4761B"/>
<path fill-rule="evenodd" clip-rule="evenodd" d="M21.8577 15.9434L20.4925 20.5665L17.8125 19.8324L21.8577 15.9434ZM17.9195 19.8051L20.4554 20.4998L21.7473 16.1251L17.9195 19.8051Z" fill="#E4761B"/>
<path d="M17.9297 19.7571L20.4407 16.3837L21.8593 16.0586L17.9297 19.7571Z" fill="#E4761B"/>
<path fill-rule="evenodd" clip-rule="evenodd" d="M21.9733 15.9434L17.8545 19.873L17.8125 19.8366L20.4035 16.308L21.9733 15.9434ZM20.4365 16.3575L18.0453 19.6139L21.7874 16.0437L20.4365 16.3575Z" fill="#E4761B"/>
<path d="M19.8965 12.5435L21.8613 15.9546L20.4328 16.2891L19.8965 12.5435ZM19.8965 12.5435L21.1608 11.666L21.8613 15.9546L19.8965 12.5435Z" fill="#F6851B"/>
<path fill-rule="evenodd" clip-rule="evenodd" d="M21.1664 11.666L21.846 16.0245L21.8613 16.0524L20.4252 16.4047L19.9061 12.6068L19.8965 12.5893L21.1664 11.666ZM19.9768 12.7355L21.7803 16.0155L20.4691 16.3372L19.9768 12.7355ZM21.7715 15.8891L19.9663 12.6058L21.1279 11.7612L21.7715 15.8891Z" fill="#F6851B"/>
<path d="M18.2754 9.98455L21.9739 8.54688L21.7901 9.33443L18.2754 9.98455ZM21.6731 10.2805L18.2754 9.98455L21.7901 9.33443L21.6731 10.2805Z" fill="#763D16"/>
<path fill-rule="evenodd" clip-rule="evenodd" d="M21.9739 8.43164L21.7814 9.34071L21.663 10.3965L18.2833 10.0719L18.2817 10.0387L18.2754 10.0166L21.9739 8.43164ZM18.5546 9.95914L21.7314 9.3113L21.8975 8.52652L18.5546 9.95914ZM18.4797 10.033L21.7226 9.37167L21.6147 10.3341L18.4797 10.033Z" fill="#763D16"/>
<path d="M21.5965 10.3056L21.1337 11.6675L18.2754 10.0053L21.5965 10.3056ZM22.3206 8.88467L21.7108 9.34579L21.8905 8.54688L22.3206 8.88467ZM21.5965 10.3056L21.7108 9.34579L22.1954 9.74257L21.5965 10.3056Z" fill="#763D16"/>
<path fill-rule="evenodd" clip-rule="evenodd" d="M21.9379 8.43164L22.4362 8.83485L21.8173 9.31704L22.3059 9.72925L21.6811 10.3343L21.2032 11.7834L18.2754 10.0293L18.2919 9.97728L21.6329 10.2885L21.738 9.37878L21.7297 9.38526L21.7458 9.3115L21.7516 9.26162L21.7559 9.26527L21.9379 8.43164ZM21.7946 9.37072L21.6935 10.2449L22.223 9.73214L21.7946 9.37072ZM21.8164 9.24708L22.3466 8.83402L21.9726 8.53142L21.8164 9.24708ZM21.6199 10.3435L18.4093 10.0445L21.1725 11.7L21.6199 10.3435Z" fill="#763D16"/>
<path d="M15.041 18.7188L15.9724 18.993L17.9305 19.759L15.041 18.7188Z" fill="#E2761B"/>
<path fill-rule="evenodd" clip-rule="evenodd" d="M15.041 18.7705L15.0596 18.7188L15.9854 19.0102L17.9305 19.8237L17.9095 19.8745L15.041 18.7705ZM15.8838 19.0359L16.139 19.1341L15.966 19.0618L15.8838 19.0359Z" fill="#E2761B"/>
<path d="M21.1142 11.6669L21.5782 10.3411L21.9766 10.6334L21.1142 11.6669ZM21.1142 11.6669L17.3535 10.4821L18.2487 10.0488L21.1142 11.6669Z" fill="#763D16"/>
<path fill-rule="evenodd" clip-rule="evenodd" d="M18.3219 9.93359L21.1748 11.7125L21.6408 10.2421L22.0922 10.6078L21.2114 11.7734L21.1906 11.7615L21.1815 11.7828L17.3535 10.4511L18.3219 9.93359ZM21.2649 11.6101L22.0147 10.6178L21.6683 10.3372L21.2649 11.6101ZM20.9582 11.6444L17.4957 10.4398L18.3199 9.99935L20.9582 11.6444Z" fill="#763D16"/>
<path d="M19.2028 5.77148L18.2781 10.0539L17.3535 10.5102L19.2028 5.77148Z" fill="#763D16"/>
<path fill-rule="evenodd" clip-rule="evenodd" d="M17.4537 10.3986L18.2662 9.98608L19.0787 6.11471L17.4537 10.3986ZM19.1511 5.77148L19.2028 5.78671L18.3137 10.0227L17.3535 10.5102L19.1511 5.77148Z" fill="#763D16"/>
<path d="M21.9739 8.5547L18.2754 10.0479L19.1889 5.77148L21.9739 8.5547Z" fill="#763D16"/>
<path fill-rule="evenodd" clip-rule="evenodd" d="M19.1889 5.65625L21.9739 8.51469L18.2754 10.0482L19.1889 5.65625ZM19.2213 5.76793L18.3498 9.95783L21.8781 8.49486L19.2213 5.76793Z" fill="#763D16"/>
<path d="M19.2012 5.75159L23.0152 5.31055L21.953 8.54673L19.2012 5.75159Z" fill="#763D16"/>
<path fill-rule="evenodd" clip-rule="evenodd" d="M23.0136 5.31055L21.9192 8.54673L19.084 5.75159L23.0136 5.31055ZM19.2029 5.79234L21.895 8.44631L22.9341 5.37356L19.2029 5.79234Z" fill="#763D16"/>
<path d="M21.1676 11.732L19.8888 12.5921L17.3535 10.5117L21.1676 11.732Z" fill="#F6851B"/>
<path fill-rule="evenodd" clip-rule="evenodd" d="M17.3535 10.4438L17.3795 10.3965L21.1676 11.6662L19.8531 12.5925L17.3535 10.4438ZM17.4953 10.4934L19.8563 12.523L21.0472 11.6839L17.4953 10.4934Z" fill="#F6851B"/>
<path d="M22.8501 2.18945L23.0152 5.3252L19.2012 5.77237L22.8501 2.18945Z" fill="#763D16"/>
<path fill-rule="evenodd" clip-rule="evenodd" d="M22.8435 2.18945L23.0136 5.3252L19.084 5.77237L22.8435 2.18945ZM19.2393 5.69995L22.9558 5.27705L22.7949 2.31144L19.2393 5.69995Z" fill="#763D16"/>
<path d="M22.7844 2.18945L15.2541 7.73719L15.1562 3.97443L22.7844 2.18945Z" fill="#E2761B"/>
<path fill-rule="evenodd" clip-rule="evenodd" d="M15.0971 4.03466L15.1939 7.74595L22.6435 2.27411L15.0971 4.03466ZM22.7624 2.18945L22.7847 2.23888L15.1418 7.85277L15.041 3.99083L22.7624 2.18945Z" fill="#E2761B"/>
<path d="M9.49219 3.57617L15.1718 4.02217L15.2711 7.73698L9.49219 3.57617Z" fill="#F6851B"/>
<path fill-rule="evenodd" clip-rule="evenodd" d="M9.375 3.57617L15.1682 4.03456L15.2695 7.85255L9.375 3.57617ZM9.56476 3.64609L15.2115 7.74272L15.1145 4.0852L9.56476 3.64609Z" fill="#F6851B"/>
<path d="M17.4179 10.5102L15.2734 7.7835L19.2031 5.77148L17.4179 10.5102Z" fill="#763D16"/>
<path fill-rule="evenodd" clip-rule="evenodd" d="M19.2015 5.65625L17.3638 10.5105L15.1562 7.71734L19.2015 5.65625ZM15.2408 7.73593L17.3468 10.4006L19.1 5.76965L15.2408 7.73593Z" fill="#763D16"/>
<path d="M17.3434 10.5117L19.8954 12.5626L16.3125 12.9389L17.3434 10.5117Z" fill="#E4761B"/>
<path fill-rule="evenodd" clip-rule="evenodd" d="M17.3766 10.3965L20.011 12.6427L16.3125 13.0548L17.3766 10.3965ZM17.3995 10.4897L16.3992 12.9885L19.8758 12.6011L17.3995 10.4897Z" fill="#E4761B"/>
<path d="M16.377 12.9393L15.2734 7.73828L17.3538 10.4424L16.377 12.9393Z" fill="#E4761B"/>
<path fill-rule="evenodd" clip-rule="evenodd" d="M15.1562 7.7611L15.204 7.73828L17.3522 10.4582L16.3094 13.0549L15.1562 7.7611ZM15.2343 7.86442L16.3248 12.8707L17.2901 10.4673L15.2343 7.86442Z" fill="#E4761B"/>
<path d="M19.1897 5.72083L15.2734 7.73719L22.786 2.18945L19.1897 5.72083Z" fill="#763D16"/>
<path fill-rule="evenodd" clip-rule="evenodd" d="M15.4659 7.53392L19.1145 5.69085L22.4649 2.46297L15.4659 7.53392ZM15.1562 7.69074L22.7492 2.18945L22.7844 2.23118L19.1467 5.73586L15.1848 7.73719L15.1562 7.69074Z" fill="#763D16"/>
<path d="M9.55961 19.7572L11.3432 21.6061L8.91602 19.4102L9.55961 19.7572Z" fill="#C0AD9E"/>
<path fill-rule="evenodd" clip-rule="evenodd" d="M8.79883 19.3402L8.83117 19.2949L9.49887 19.6551L11.3415 21.5664L11.3023 21.6065L8.79883 19.3402ZM9.00821 19.4541L10.7284 21.0113L9.46434 19.7002L9.00821 19.4541Z" fill="#C0AD9E"/>
<path d="M17.9297 19.7584L18.7828 16.532L20.4724 16.291L17.9297 19.7584Z" fill="#CD6116"/>
<path fill-rule="evenodd" clip-rule="evenodd" d="M20.4708 16.291L17.8619 19.8739L17.8125 19.8504L18.6794 16.5484L20.4708 16.291ZM18.7238 16.5983L17.9038 19.7218L20.3481 16.365L18.7238 16.5983Z" fill="#CD6116"/>
<path d="M2.21094 10.742L5.33154 7.50586L2.61342 10.3559L2.21094 10.742Z" fill="#E2761B"/>
<path d="M20.4721 16.3945L18.785 16.6365L19.9335 12.6386L20.4721 16.3945ZM15.2514 7.78296L12.2234 7.68398L9.49219 3.57617L15.2514 7.78296Z" fill="#F6851B"/>
<path fill-rule="evenodd" clip-rule="evenodd" d="M9.49219 3.61345L9.53107 3.57617L15.3338 7.81756L12.2179 7.71563L9.49219 3.61345ZM9.6226 3.71086L12.2478 7.66182L15.1582 7.75703L9.6226 3.71086ZM18.8002 16.5703L20.4102 16.3392L19.8963 12.7527L18.8002 16.5703ZM19.8789 12.6149L19.9323 12.6186L20.4721 16.3856L18.7243 16.6365L19.8789 12.6149Z" fill="#F6851B"/>
<path d="M19.8964 12.5918L18.7206 16.637L18.625 14.6617L19.8964 12.5918Z" fill="#E4751F"/>
<path fill-rule="evenodd" clip-rule="evenodd" d="M18.6796 14.6719L18.7631 16.4609L19.7889 12.7973L18.6796 14.6719ZM19.8474 12.5918L19.8964 12.6138L18.7698 16.637L18.717 16.6307L18.625 14.6577L19.8474 12.5918Z" fill="#E4751F"/>
<path d="M16.3125 12.9889L19.8954 12.5918L18.6361 14.6722L16.3125 12.9889Z" fill="#CD6116"/>
<path fill-rule="evenodd" clip-rule="evenodd" d="M19.8954 12.5918L18.6361 14.6722L16.3125 12.9889L19.8954 12.5918ZM16.4573 13.0271L18.6204 14.5942L19.7927 12.6575L16.4573 13.0271Z" fill="#CD6116"/>
<path d="M12.1504 7.62305L15.167 7.7215L16.3112 12.9396L12.1504 7.62305Z" fill="#F6851B"/>
<path fill-rule="evenodd" clip-rule="evenodd" d="M12.1504 7.62305L15.2695 7.72542L16.4268 13.0322L16.3781 13.0552L12.1504 7.62305ZM12.2665 7.68229L16.347 12.9253L15.2249 7.77938L12.2665 7.68229Z" fill="#F6851B"/>
<path d="M12.1505 7.66982L4.01045 0.109375L9.42986 3.56542L12.1505 7.66982ZM9.42438 20.9116L2.35178 23.1094L0.939453 17.6973L9.42438 20.9116Z" fill="#E4761B"/>
<path fill-rule="evenodd" clip-rule="evenodd" d="M4.04627 0.152618L4.07969 0.109375L9.52944 3.55985L12.2661 7.65877L12.2245 7.69407L4.04627 0.152618ZM4.30649 0.317901L12.0924 7.49756L9.49011 3.59988L4.30649 0.317901ZM0.939453 17.6319L9.58896 20.885L2.37918 23.1094L0.939453 17.6319ZM1.01963 17.7206L2.41782 23.0401L9.41959 20.8799L1.01963 17.7206Z" fill="#E4761B"/>
<path d="M3.25 12.1296L5.95378 9.93359L8.21985 10.4783L3.25 12.1296Z" fill="#763D16"/>
<path fill-rule="evenodd" clip-rule="evenodd" d="M5.96128 9.93359L8.33543 10.4901L3.27554 12.1296L3.25 12.081L5.96128 9.93359ZM5.97459 9.99405L3.40561 12.0288L8.1277 10.4987L5.97459 9.99405Z" fill="#763D16"/>
<path d="M8.21942 10.5106L6.02344 9.98307L7.19928 4.96289L8.21942 10.5106Z" fill="#763D16"/>
<path fill-rule="evenodd" clip-rule="evenodd" d="M5.97651 9.93019L8.15209 10.4378L7.14143 5.09979L5.97651 9.93019ZM7.118 4.96289L7.1716 4.96423L8.22171 10.5106L5.91016 9.97128L7.118 4.96289Z" fill="#763D16"/>
<path d="M2.67188 10.312L6.02363 9.93359L3.32897 12.1296L2.67188 10.312Z" fill="#763D16"/>
<path fill-rule="evenodd" clip-rule="evenodd" d="M6.02593 9.93359L3.23835 12.1296L2.55859 10.312L6.02593 9.93359ZM2.63495 10.3592L3.26344 12.0397L5.8408 10.0093L2.63495 10.3592Z" fill="#763D16"/>
<path d="M18.6241 14.6712L17.2271 13.9397L16.3125 12.9375L18.6241 14.6712Z" fill="#CD6116"/>
<path fill-rule="evenodd" clip-rule="evenodd" d="M16.3125 12.9795L16.3483 12.9375L18.6241 14.6235L18.5958 14.6712L17.2163 13.9576L16.3125 12.9795ZM16.5526 13.158L17.2493 13.912L18.3133 14.4623L16.5526 13.158Z" fill="#CD6116"/>
<path d="M2.67843 10.2808L2.44141 9.125L6.02432 9.94474L2.67843 10.2808Z" fill="#763D16"/>
<path fill-rule="evenodd" clip-rule="evenodd" d="M2.32617 9.00977L6.02466 9.95415L6.02094 10.0111L2.58102 10.3967L2.32617 9.00977ZM2.39775 9.08778L2.62661 10.3333L5.85725 9.97114L2.39775 9.08778Z" fill="#763D16"/>
<path d="M17.0039 15.481L17.2807 13.9785L18.622 14.6457L17.0039 15.481Z" fill="#233447"/>
<path fill-rule="evenodd" clip-rule="evenodd" d="M17.2069 13.8633L18.7399 14.6331L16.8906 15.5969L17.2069 13.8633ZM17.2497 13.9489L16.9682 15.4919L18.614 14.6341L17.2497 13.9489Z" fill="#233447"/>
<path d="M18.7376 16.6367L17.0039 15.5519L18.6458 14.6719L18.7376 16.6367Z" fill="#F6851B"/>
<path fill-rule="evenodd" clip-rule="evenodd" d="M18.6419 14.5566L18.7399 16.637L16.8906 15.4884L18.6419 14.5566ZM17.0021 15.4922L18.68 16.5344L18.5912 14.6467L17.0021 15.4922Z" fill="#F6851B"/>
<path d="M5.94375 9.98307L2.38581 9.08899L2.0957 8.02831L5.94375 9.98307ZM7.1425 4.96289L5.94375 9.98307L2.0957 8.02831L7.1425 4.96289ZM7.1425 4.96289L12.151 7.63402L8.18251 10.5106L7.1425 4.96289Z" fill="#763D16"/>
<path fill-rule="evenodd" clip-rule="evenodd" d="M7.1607 5.07644L2.20949 8.02565L5.98465 9.90631L7.1607 5.07644ZM5.7706 9.86062L2.19547 8.07962L2.46501 9.04601L5.7706 9.86062ZM2.12063 8.01507L2.0957 8.02991L2.12946 8.04673L2.42078 9.09126L5.99363 9.97172L6.02168 9.9857L7.19948 5.14863L8.22449 10.5106L12.2666 7.63733L7.23435 5.00544L7.24471 4.96289L7.20183 4.98843L7.16519 4.96927L7.17222 5.00606L2.15142 7.99673L2.10972 7.97595L2.12063 8.01507ZM7.24022 5.07007L8.2623 10.4168L12.1624 7.64441L7.24022 5.07007Z" fill="#763D16"/>
<path d="M8.2207 10.474L12.2185 7.62305L13.9996 13.0552L8.2207 10.474ZM13.9996 13.0552L8.47436 12.9396L8.2207 10.474L13.9996 13.0552Z" fill="#E4761B"/>
<path fill-rule="evenodd" clip-rule="evenodd" d="M12.2185 7.62305L13.9996 13.1708L13.9488 13.1476L8.49971 13.0312L8.24956 10.5478L8.2207 10.5346L8.24635 10.5159L8.24317 10.4843L8.2718 10.4974L12.2185 7.62305ZM8.30666 10.5738L13.8217 13.0896L8.54873 12.977L8.30666 10.5738ZM13.91 13.0694L8.32913 10.5236L12.19 7.71174L13.91 13.0694Z" fill="#E4761B"/>
<path d="M3.25 12.059L8.16817 10.474L8.42039 12.9396L3.25 12.059ZM16.3103 12.9727L13.9143 13.0552L12.1433 7.62305L16.3103 12.9727Z" fill="#F6851B"/>
<path fill-rule="evenodd" clip-rule="evenodd" d="M12.1611 7.64835L12.2089 7.62305L16.4259 12.9708L13.9456 13.0552L12.1611 7.64835ZM12.2622 7.77922L13.985 12.9992L16.3159 12.9199L12.2622 7.77922ZM8.22014 10.431L8.48053 12.9455L3.25381 12.0662L3.25 12.0133L8.22014 10.431ZM3.37421 12.0311L8.41838 12.8797L8.17232 10.5035L3.37421 12.0311Z" fill="#F6851B"/>
<path d="M17.2371 13.8993L16.9457 15.4802L16.3125 12.9375L17.2371 13.8993Z" fill="#CD6116"/>
<path fill-rule="evenodd" clip-rule="evenodd" d="M16.3125 12.9375L17.3527 13.945L17.0491 15.4786L16.9925 15.4802L16.3125 12.9375ZM16.4208 13.1197L17.0164 15.3466L17.2905 13.962L16.4208 13.1197Z" fill="#CD6116"/>
<path d="M4.06055 0.109375L12.151 7.62194L7.17268 4.99582L4.06055 0.109375Z" fill="#763D16"/>
<path fill-rule="evenodd" clip-rule="evenodd" d="M4.06055 0.143909L4.10232 0.109375L12.2666 7.578L12.2352 7.62194L7.20498 5.00783L4.06055 0.143909ZM4.22192 0.292728L7.24341 4.96648L12.0768 7.4783L4.22192 0.292728Z" fill="#763D16"/>
<path d="M0.939453 17.6226L7.85892 17.3301L9.49222 20.913L0.939453 17.6226Z" fill="#E4761B"/>
<path fill-rule="evenodd" clip-rule="evenodd" d="M7.83492 17.3301L9.49222 20.913L0.939453 17.6702L0.947989 17.617L7.83492 17.3301ZM1.08444 17.6664L9.38598 20.8139L7.80066 17.3866L1.08444 17.6664Z" fill="#E4761B"/>
<path d="M9.48559 20.9133L7.875 17.3812L11.2268 17.2148L9.48559 20.9133Z" fill="#CD6116"/>
<path fill-rule="evenodd" clip-rule="evenodd" d="M11.2251 17.2148L9.42393 20.9133L7.75781 17.3812L11.2251 17.2148ZM7.84196 17.4313L9.42473 20.7867L11.1358 17.2733L7.84196 17.4313Z" fill="#CD6116"/>
<path d="M16.9359 15.5158L18.6938 16.5763L19.6631 18.8324L16.9359 15.5158ZM8.43657 12.9946L0.939453 17.6421L3.27238 12.1289L8.43657 12.9946ZM7.80679 17.3608L0.939453 17.6421L8.43657 12.9946L7.80679 17.3608ZM16.317 13.027L16.7661 14.6393L14.5975 14.7638L16.317 13.027ZM14.5975 14.7638L13.9239 13.1082L16.317 13.027L14.5975 14.7638Z" fill="#F6851B"/>
<path fill-rule="evenodd" clip-rule="evenodd" d="M3.25554 12.0137L8.45945 12.89L8.50082 12.8642L8.49624 12.8962L8.54101 12.9037L8.49065 12.9351L7.85597 17.3554L0.935155 17.6402L0.867837 17.6821L0.88462 17.6423L0.824219 17.6448L0.904679 17.5947L3.25554 12.0137ZM3.28947 12.0748L0.985586 17.5443L8.38939 12.9336L3.28947 12.0748ZM8.42957 12.9731L1.0292 17.5816L7.80792 17.3027L8.42957 12.9731ZM16.4199 12.9593L16.4569 12.9218L16.4099 12.9234L16.403 12.8983L16.3772 12.9245L13.9426 13.0075L14.6278 14.6994L14.5906 14.7371L14.6419 14.7342L14.6503 14.7548L14.6723 14.7324L16.8763 14.6054L16.4199 12.9593ZM14.023 13.0594L14.6699 14.6567L16.3214 12.9811L14.023 13.0594ZM16.3753 13.0046L14.7295 14.6744L16.8051 14.5547L16.3753 13.0046ZM16.99 15.4826L17.0257 15.4421L18.8009 16.5178L19.779 18.8049L19.7323 18.8328L16.99 15.4826ZM17.1338 15.5716L19.6522 18.6483L18.7571 16.5553L17.1338 15.5716Z" fill="#F6851B"/>
<path d="M11.32 21.611L9.49219 20.9141L15.849 21.9543L11.32 21.611Z" fill="#C0AD9E"/>
<path fill-rule="evenodd" clip-rule="evenodd" d="M9.49219 20.8524L9.50654 20.7988L15.849 21.8992L15.8424 21.9546L11.3197 21.5912L9.49219 20.8524ZM9.75473 20.8985L11.3319 21.5362L15.2397 21.8502L9.75473 20.8985Z" fill="#C0AD9E"/>
<path d="M3.25114 12.1305L2.21094 10.6954L2.60643 10.2812L3.25114 12.1305Z" fill="#763D16"/>
<path fill-rule="evenodd" clip-rule="evenodd" d="M2.67519 10.2812L3.36672 12.1033L3.31772 12.1305L2.21094 10.7279L2.67519 10.2812ZM2.28709 10.733L3.24824 11.9511L2.65253 10.3815L2.28709 10.733Z" fill="#763D16"/>
<path d="M16.658 21.1834L15.9277 21.9543L9.49219 20.9141L16.658 21.1834Z" fill="#D7C1B3"/>
<path fill-rule="evenodd" clip-rule="evenodd" d="M9.49219 20.8542L9.49776 20.7988L16.658 21.0854L15.8849 21.9546L9.49219 20.8542ZM9.92165 20.8716L15.8646 21.8946L16.539 21.1364L9.92165 20.8716Z" fill="#D7C1B3"/>
<path d="M17.0048 19.211L9.49219 20.9133L11.2495 17.2148L17.0048 19.211Z" fill="#E4761B"/>
<path fill-rule="evenodd" clip-rule="evenodd" d="M11.1864 17.2148L17.1187 19.211L9.375 20.9133L11.1864 17.2148ZM11.2151 17.282L9.47456 20.8357L16.9152 19.2L11.2151 17.282Z" fill="#E4761B"/>
<path d="M9.49219 20.8646L17.0048 19.1797L16.6588 21.1445L9.49219 20.8646Z" fill="#D7C1B3"/>
<path fill-rule="evenodd" clip-rule="evenodd" d="M17.0048 19.1797L16.6494 21.1445L9.4971 20.8725L9.49219 20.8201L17.0048 19.1797ZM9.70813 20.8274L16.6039 21.0896L16.9367 19.249L9.70813 20.8274Z" fill="#D7C1B3"/>
<path d="M2.11069 8.00172L1.86328 3.80859L7.17986 4.99183L2.11069 8.00172ZM2.6385 10.281L1.90727 9.54484L2.40209 9.04319L2.6385 10.281Z" fill="#763D16"/>
<path fill-rule="evenodd" clip-rule="evenodd" d="M1.86328 3.80859L7.29544 5.01434L2.11607 8.08151L1.86328 3.80859ZM1.92257 3.87762L2.16578 7.98854L7.14879 5.03766L1.92257 3.87762ZM2.45025 9.01978L2.71391 10.3965L1.8984 9.57776L2.45025 9.01978ZM1.97563 9.57762L2.62605 10.2307L2.41577 9.1326L1.97563 9.57762Z" fill="#763D16"/>
<path d="M12.7305 14.1402L14.0018 13.0527L13.8202 15.711L12.7305 14.1402Z" fill="#CD6116"/>
<path fill-rule="evenodd" clip-rule="evenodd" d="M14.0018 13.0527L13.8202 15.8266L12.7305 14.1875L14.0018 13.0527ZM12.8014 14.1967L13.7769 15.6641L13.9395 13.1808L12.8014 14.1967Z" fill="#CD6116"/>
<path d="M14.0011 13.0527L12.7773 14.1751L10.9961 15.1331L14.0011 13.0527Z" fill="#CD6116"/>
<path fill-rule="evenodd" clip-rule="evenodd" d="M11.3334 14.8528L12.7079 14.1495L13.6524 13.3254L11.3334 14.8528ZM10.8789 15.0855L13.9654 13.0527L13.9995 13.0965L12.7399 14.1955L10.9074 15.1331L10.8789 15.0855Z" fill="#CD6116"/>
<path d="M19.6622 18.8322L19.3366 18.5862L17.0039 15.4805L19.6622 18.8322Z" fill="#F6851B"/>
<path fill-rule="evenodd" clip-rule="evenodd" d="M17.0039 15.514L17.0469 15.4805L19.7778 18.7934L19.7402 18.8322L19.4026 18.5868L17.0039 15.514ZM18.3103 17.0989L19.4414 18.5478L19.5993 18.6626L18.3103 17.0989Z" fill="#F6851B"/>
<path d="M10.9557 15.1335L8.45312 12.9375L14.0009 13.0564L10.9557 15.1335Z" fill="#CD6116"/>
<path fill-rule="evenodd" clip-rule="evenodd" d="M8.45312 12.9375L14.0009 13.0564L10.9557 15.1335L8.45312 12.9375ZM8.60195 12.9957L10.9598 15.0646L13.8288 13.1076L8.60195 12.9957Z" fill="#CD6116"/>
<path d="M13.7695 15.711L13.9604 13.0527L14.6942 14.7334L13.7695 15.711Z" fill="#E4751F"/>
<path fill-rule="evenodd" clip-rule="evenodd" d="M13.9524 13.0612L14.0058 13.0527L14.6942 14.765L13.7695 15.8266L13.9524 13.0612ZM13.9997 13.1863L13.8357 15.6662L14.63 14.7541L13.9997 13.1863Z" fill="#E4751F"/>
<path d="M1.63281 8.49789L2.12186 8.08398L2.44186 9.12419L1.63281 8.49789Z" fill="#763D16"/>
<path fill-rule="evenodd" clip-rule="evenodd" d="M2.12186 7.96875L2.44186 9.12453L1.63281 8.42864L2.12186 7.96875ZM1.71317 8.42686L2.34296 8.96855L2.09386 8.06886L1.71317 8.42686Z" fill="#763D16"/>
<path d="M13.77 15.7118L10.9961 15.0499L12.7418 14.0938L13.77 15.7118Z" fill="#233447"/>
<path fill-rule="evenodd" clip-rule="evenodd" d="M12.7701 14.0938L13.8839 15.7118L10.8789 15.0499L12.7701 14.0938ZM11.0387 15.0298L13.7606 15.6294L12.7517 14.1638L11.0387 15.0298Z" fill="#233447"/>
<path d="M7.17986 4.96365L1.86328 3.78669L4.035 0.109375L7.17986 4.96365Z" fill="#763D16"/>
<path fill-rule="evenodd" clip-rule="evenodd" d="M4.035 0.109375L7.17986 5.07922L1.86328 3.87424L4.035 0.109375ZM4.03713 0.213919L1.94698 3.83737L7.06387 4.99709L4.03713 0.213919Z" fill="#763D16"/>
<path d="M15.8961 21.9568L16.1961 22.7632L11.3418 21.6074L15.8961 21.9568Z" fill="#C0AD9E"/>
<path fill-rule="evenodd" clip-rule="evenodd" d="M11.3418 21.6575L11.3502 21.6074L15.8758 21.9396L16.1961 22.7632L11.3418 21.6575ZM11.6831 21.6829L16.1106 22.6914L15.837 21.9878L11.6831 21.6829Z" fill="#C0AD9E"/>
<path d="M11.2585 17.2152L10.9961 15.1348L13.77 15.7605L11.2585 17.2152Z" fill="#F6851B"/>
<path fill-rule="evenodd" clip-rule="evenodd" d="M10.8789 15.0195L13.8839 15.68L11.1632 17.2155L10.8789 15.0195ZM10.9444 15.0897L11.2081 17.1272L13.7326 15.7025L10.9444 15.0897Z" fill="#F6851B"/>
<path d="M8.45312 12.9375L10.9557 15.0729L11.227 17.2139L8.45312 12.9375Z" fill="#E4751F"/>
<path fill-rule="evenodd" clip-rule="evenodd" d="M8.45312 12.973L8.49368 12.9375L10.9593 15.0621L11.227 17.1957L11.1772 17.2139L8.45312 12.973ZM8.60016 13.1012L11.1581 17.0835L10.9079 15.0898L8.60016 13.1012Z" fill="#E4751F"/>
<path d="M14.6866 14.7285L16.8619 14.6025L19.4328 18.6008L14.6866 14.7285ZM8.50672 12.9375L11.2588 17.1932L7.875 17.3575L8.50672 12.9375Z" fill="#F6851B"/>
<path fill-rule="evenodd" clip-rule="evenodd" d="M8.40799 12.8223L11.2405 17.193L7.75781 17.3618L8.40799 12.8223ZM8.44177 12.9758L7.82191 17.3037L11.1422 17.1428L8.44177 12.9758ZM16.8382 14.5409L19.4312 18.5651L19.3905 18.6012L14.5648 14.6722L16.8382 14.5409ZM14.7093 14.7189L19.2908 18.4491L16.8092 14.5976L14.7093 14.7189Z" fill="#F6851B"/>
<path d="M14.6279 14.7871L17.3524 18.8323L13.7695 15.7485L14.6279 14.7871Z" fill="#E4751F"/>
<path fill-rule="evenodd" clip-rule="evenodd" d="M14.6546 14.6719L17.3524 18.7972L17.3117 18.8327L13.7695 15.6928L14.6546 14.6719ZM13.8461 15.6877L17.1955 18.6567L14.6485 14.7622L13.8461 15.6877Z" fill="#E4751F"/>
<path d="M13.7695 15.7129L17.3524 18.8456L16.9759 19.1802L13.7695 15.7129Z" fill="#F6851B"/>
<path fill-rule="evenodd" clip-rule="evenodd" d="M13.7695 15.7513L13.8076 15.7129L17.3524 18.8131L16.9395 19.1802L13.7695 15.7513ZM14.1561 16.0896L16.9432 19.1044L17.2706 18.8134L14.1561 16.0896Z" fill="#F6851B"/>
<path d="M17.0061 19.1791L11.2266 17.2271L13.813 15.7523L17.0061 19.1791ZM19.4326 18.6206L17.3811 18.8483L14.6678 14.7871L19.4326 18.6206Z" fill="#F6851B"/>
<path fill-rule="evenodd" clip-rule="evenodd" d="M14.5859 14.7083L14.6263 14.6719L19.431 18.6062L17.3024 18.8467L14.5859 14.7083ZM14.7306 14.8284L17.3298 18.7882L19.2952 18.5662L14.7306 14.8284ZM13.7613 15.6384L16.9622 19.1348L16.933 19.1794L11.1094 17.1775L13.7613 15.6384ZM11.2413 17.1646L16.8486 19.0922L13.7507 15.7083L11.2413 17.1646Z" fill="#F6851B"/>
<path d="M19.8948 20.5664L19.013 22.3069L16.1527 22.7624L19.8948 20.5664ZM16.1527 22.7624L15.8496 21.9491L16.5826 21.1574L16.1527 22.7624Z" fill="#C0AD9E"/>
<path fill-rule="evenodd" clip-rule="evenodd" d="M20.0104 20.4512L19.0765 22.3415L16.2079 22.81L16.1901 22.8783L15.8496 21.9415L16.597 21.1137L16.6442 21.1396L16.2298 22.7263L20.0104 20.4512ZM16.1814 22.6923L16.5619 21.2355L15.9131 21.954L16.1814 22.6923ZM16.3244 22.7344L19.0396 22.291L19.8767 20.5967L16.3244 22.7344Z" fill="#C0AD9E"/>
<path d="M16.6202 21.1574L17.154 20.946L16.1953 22.7624L16.6202 21.1574ZM16.1953 22.7624L17.154 20.946L19.8938 20.5664L16.1953 22.7624Z" fill="#C0AD9E"/>
<path fill-rule="evenodd" clip-rule="evenodd" d="M17.1115 20.9491L17.1009 20.9506L17.099 20.954L16.5572 21.1683L16.1259 22.7949L16.082 22.878L19.8961 20.6169L19.8782 20.5664L17.1678 20.9413L17.1775 20.923L17.1115 20.9491ZM17.0597 21.0283L16.2399 22.5793L16.6032 21.2089L17.0597 21.0283ZM16.2214 22.7318L17.1364 21.0008L19.7514 20.6391L16.2214 22.7318Z" fill="#C0AD9E"/>
<path d="M19.3636 18.6016L20.0097 19.035L18.0449 19.295L19.3636 18.6016Z" fill="#161616"/>
<path fill-rule="evenodd" clip-rule="evenodd" d="M19.3932 18.6016L20.1253 19.047L18.0596 19.295L18.0449 19.2447L19.3932 18.6016ZM18.2137 19.2231L19.9666 19.0126L19.3901 18.6619L18.2137 19.2231Z" fill="#161616"/>
<path d="M18.0095 19.2714L17.3535 18.836L19.3702 18.6016L18.0095 19.2714ZM17.7764 19.6007L20.243 19.2937L19.9014 20.5664L17.7764 19.6007Z" fill="#161616"/>
<path fill-rule="evenodd" clip-rule="evenodd" d="M17.3935 18.8735L17.9729 19.2455L19.1747 18.6732L17.3935 18.8735ZM19.3286 18.6016L19.3433 18.6527L17.9689 19.3072L17.2363 18.8368L19.3286 18.6016ZM20.2414 19.2663L19.8807 20.5664L17.6365 19.5799L20.2414 19.2663ZM17.839 19.6099L19.8451 20.4917L20.1676 19.3296L17.839 19.6099Z" fill="#161616"/>
<path d="M19.9012 20.5442L17.187 20.9304L17.786 19.5898L19.9012 20.5442ZM17.187 20.9304L16.6582 21.1455L16.9981 19.1705L17.187 20.9304ZM16.9981 19.1705L17.3651 18.834L18.018 19.2643L16.9981 19.1705ZM20.0361 19.016L20.2411 19.2864L17.786 19.5898L20.0361 19.016Z" fill="#161616"/>
<path fill-rule="evenodd" clip-rule="evenodd" d="M17.3134 18.834L18.0103 19.2612L17.9925 19.3102L16.9663 19.2224L17.1479 20.7958L17.7398 19.5634L17.7564 19.5703L20.1043 19.0134L20.359 19.3258L17.8586 19.6132L20.0547 20.535L17.1383 20.921L16.5449 21.1455L16.9018 19.2169L16.868 19.214L17.3134 18.834ZM16.9283 19.3817L16.6176 21.0606L17.1009 20.8777L16.9283 19.3817ZM17.1778 20.8619L17.7678 19.6335L19.8514 20.508L17.1778 20.8619ZM18.1986 19.5204L20.254 19.2841L20.0824 19.0736L18.1986 19.5204ZM17.0014 19.1718L17.8841 19.2473L17.319 18.9009L17.0014 19.1718Z" fill="#161616"/>
<path d="M17.7832 19.6187L18.0127 19.3043L20.0089 19.0645L17.7832 19.6187ZM17.0039 19.2137L17.7832 19.6187L17.1907 20.9137L17.0039 19.2137Z" fill="#161616"/>
<path fill-rule="evenodd" clip-rule="evenodd" d="M17.9729 19.2542L17.7889 19.5131L19.5726 19.0567L17.9729 19.2542ZM17.7142 19.523L17.9427 19.2014L20.0013 18.9473L20.0112 19.0024L17.7419 19.583L17.0986 21.0277L16.8906 19.0832L17.7142 19.523ZM17.6816 19.5689L16.9562 19.1815L17.1313 20.819L17.674 19.6004L17.6559 19.605L17.6816 19.5689Z" fill="#161616"/>
<path d="M18.0441 19.2831L17.8074 19.642L17.0039 19.1797L18.0441 19.2831Z" fill="#161616"/>
<path fill-rule="evenodd" clip-rule="evenodd" d="M17.0039 19.2295L17.0182 19.1797L18.0441 19.2738L17.781 19.642L17.0039 19.2295ZM17.1442 19.2444L17.7653 19.5741L17.9483 19.3181L17.1442 19.2444Z" fill="#161616"/>
</svg>
